<svg xmlns="http://www.w3.org/2000/svg" viewBox="0 0 163 239"><defs><style>.cls-1{fill:#fff;}.cls-2{fill:#17212f;}.cls-3{fill:#172547;}.cls-4{fill:#1126a9;}</style></defs><title>tht-marker</title><g id="Layer_2" data-name="Layer 2"><g id="Layer_1-2" data-name="Layer 1"><path class="cls-1" d="M163,0H0V163H49.8L81,239c0-2.68,27.44-67.21,31.18-76H163Z"/><g id="Layer_1-2-2" data-name="Layer 1-2"><polygon class="cls-2" points="49.09 153.38 10.39 153.38 10.39 10.13 48.34 10.13 48.34 23.23 23.49 23.23 23.49 140.29 49.09 140.29 49.09 153.38"/><path class="cls-3" d="M77.69,67.43V51.76H72V48.19H87v3.57H81.38V67.43Z"/><path class="cls-3" d="M89.63,67.43V48.19h3.72v7.34h6.59V48.19h3.72V67.43H99.94V59.1h-6.6v8.33Z"/><path class="cls-3" d="M108,67.43V48.19h12.17v3.57h-8.45v3.77h7.7V59.1H111.7v4.76h8.45v3.57Z"/><path class="cls-3" d="M38.5,90.81V71.57h3.72V78.9h6.6V71.57h3.72V90.81H48.82V82.48h-6.6v8.33Z"/><path class="cls-3" d="M54.17,90.81l6.68-19.24h3.27l6.65,19.24h-4l-1.13-3.36H59.12L58,90.81Zm6.18-6.93H64.5l-2.09-6.6Z"/><path class="cls-3" d="M78.77,84.19V80.75h8V84a7.08,7.08,0,0,1-2,5.19,6.82,6.82,0,0,1-5.14,2c-4.48,0-7.14-3.27-7.14-10.34,0-6.4,2.75-9.72,7.14-9.72a6.25,6.25,0,0,1,4.76,2,7.76,7.76,0,0,1,2.14,5l-3.46.47c-.25-2.61-1.37-3.93-3.44-3.93-2.41,0-3.43,1.65-3.43,6.15,0,2.56.27,4.35.8,5.31a2.77,2.77,0,0,0,2.63,1.46c2.29,0,3.38-1.38,3.41-3.46Z"/><path class="cls-3" d="M89.44,71.57h3.72V84.1c0,2.17,1.13,3.54,3.4,3.54A3.15,3.15,0,0,0,100,84.15V71.57h3.72V84a7.08,7.08,0,0,1-2,5.19,7.52,7.52,0,0,1-10.28,0,7.1,7.1,0,0,1-2-5.19Z"/><path class="cls-3" d="M108,90.81V71.57h12.17v3.57h-8.45V78.9h7.7v3.58H111.7v4.75h8.45v3.58Z"/><path class="cls-4" d="M60.63,114.18V98.51H55V94.94H70v3.57H64.34v15.67Z"/><path class="cls-4" d="M73.91,114.18V94.94H86.08v3.57H77.63v3.77h7.69v3.57h-7.7v4.76h8.45v3.57Z"/><path class="cls-4" d="M103.84,107.66a7.51,7.51,0,0,1-2.09,5,6.34,6.34,0,0,1-4.81,2c-4.48,0-7.15-3.27-7.15-10.34,0-6.4,2.75-9.72,7.15-9.72a6.29,6.29,0,0,1,4.81,2,7.38,7.38,0,0,1,2.09,4.92l-3.46.58c-.25-2.61-1.38-3.93-3.44-3.93-2.42,0-3.44,1.65-3.44,6.15a12.36,12.36,0,0,0,.8,5.31A2.78,2.78,0,0,0,96.94,111c2.06,0,3.19-1.32,3.44-3.93Z"/><path class="cls-4" d="M106.67,114.18V94.94h3.72v7.34H117V94.94h3.72v19.24H117v-8.33h-6.6v8.33Z"/><path class="cls-4" d="M150.73,62.81a1.31,1.31,0,1,0-1.31-1.31h0A1.31,1.31,0,0,0,150.73,62.81Z"/><path class="cls-4" d="M150.73,71a1.39,1.39,0,1,0-1.39-1.39h0A1.39,1.39,0,0,0,150.73,71Z"/><circle class="cls-4" cx="150.71" cy="77.68" r="1.46"/><path class="cls-4" d="M150.73,87.31a1.55,1.55,0,1,0-1.55-1.55h0A1.54,1.54,0,0,0,150.73,87.31Z"/><path class="cls-4" d="M150.73,95.48a1.63,1.63,0,1,0-1.63-1.63h0A1.63,1.63,0,0,0,150.73,95.48Z"/><circle class="cls-4" cx="150.71" cy="101.94" r="1.71"/><circle class="cls-4" cx="150.71" cy="110.02" r="1.79"/><path class="cls-4" d="M150.73,120a1.87,1.87,0,1,0-1.87-1.87h0A1.87,1.87,0,0,0,150.73,120Z"/><path class="cls-4" d="M150.73,128.15a2,2,0,1,0-1.95-2h0A2,2,0,0,0,150.73,128.15Z"/><circle class="cls-4" cx="150.71" cy="134.28" r="2.04"/><circle class="cls-4" cx="150.71" cy="142.37" r="2.12"/><path class="cls-4" d="M150.73,148.26a2.2,2.2,0,1,0,2.2,2.2h0A2.2,2.2,0,0,0,150.73,148.26Z"/><path class="cls-4" d="M142.63,45.9a.57.57,0,0,0,0-1.14.56.56,0,0,0-.57.56h0A.57.57,0,0,0,142.63,45.9Z"/><path class="cls-4" d="M142.63,54.07a.65.65,0,0,0,.65-.65.65.65,0,1,0-1.3,0h0A.65.65,0,0,0,142.63,54.07Z"/><path class="cls-4" d="M142.63,62.24a.74.74,0,1,0-.74-.74.74.74,0,0,0,.74.74Z"/><path class="cls-4" d="M142.63,70.41a.82.82,0,0,0,.81-.82.81.81,0,0,0-.81-.81.82.82,0,0,0-.82.81A.83.83,0,0,0,142.63,70.41Z"/><circle class="cls-4" cx="142.63" cy="77.68" r="0.9"/><circle class="cls-4" cx="142.63" cy="85.76" r="0.98"/><path class="cls-4" d="M142.63,94.91a1.06,1.06,0,1,0-1.06-1.06,1.07,1.07,0,0,0,1.06,1.06Z"/><circle class="cls-4" cx="142.63" cy="101.94" r="1.14"/><path class="cls-4" d="M142.63,111.24a1.23,1.23,0,1,0-1.22-1.23h0A1.22,1.22,0,0,0,142.63,111.24Z"/><path class="cls-4" d="M142.63,119.41a1.3,1.3,0,1,0-1.31-1.3,1.3,1.3,0,0,0,1.31,1.3Z"/><circle class="cls-4" cx="150.71" cy="45.33" r="2.81"/><circle class="cls-4" cx="150.71" cy="53.42" r="2.93"/><circle class="cls-4" cx="142.63" cy="126.2" r="1.41"/><circle class="cls-4" cx="142.63" cy="134.28" r="1.53"/><circle class="cls-4" cx="142.63" cy="142.37" r="1.64"/><circle class="cls-4" cx="142.63" cy="150.45" r="1.76"/><circle class="cls-4" cx="134.54" cy="45.33" r="0.7"/><circle class="cls-4" cx="134.54" cy="53.42" r="0.82"/><path class="cls-4" d="M134.54,62.44a.94.94,0,1,0-.94-.94h0A.94.94,0,0,0,134.54,62.44Z"/><path class="cls-4" d="M134.54,70.66a1.06,1.06,0,1,0-1-1h0A1,1,0,0,0,134.54,70.66Z"/><path class="cls-4" d="M134.54,78.85a1.18,1.18,0,1,0-1.17-1.17,1.18,1.18,0,0,0,1.17,1.17Z"/><circle class="cls-4" cx="134.54" cy="85.76" r="1.29"/><path class="cls-4" d="M134.54,95.26A1.42,1.42,0,0,0,136,93.85a1.41,1.41,0,0,0-1.41-1.41,1.39,1.39,0,0,0-1.41,1.4h0a1.41,1.41,0,0,0,1.4,1.41Z"/><circle class="cls-4" cx="134.54" cy="101.94" r="1.53"/><circle class="cls-4" cx="134.54" cy="110.02" r="1.64"/><path class="cls-4" d="M134.54,119.87a1.76,1.76,0,1,0-1.76-1.76,1.76,1.76,0,0,0,1.76,1.76Z"/><path class="cls-4" d="M134.54,128.07a1.88,1.88,0,1,0-1.87-1.87h0A1.87,1.87,0,0,0,134.54,128.07Z"/><circle class="cls-4" cx="134.54" cy="134.28" r="1.99"/><circle class="cls-4" cx="134.54" cy="142.37" r="2.11"/><circle class="cls-4" cx="134.54" cy="150.45" r="2.23"/><path class="cls-4" d="M142.63,29.56a.41.41,0,1,0-.41-.4A.4.4,0,0,0,142.63,29.56Z"/><path class="cls-4" d="M142.63,36.76a.49.49,0,0,0-.5.48.51.51,0,0,0,.49.5.49.49,0,0,0,.49-.49h0a.47.47,0,0,0-.48-.48Z"/><path class="cls-4" d="M134.54,15.67A2.69,2.69,0,1,0,131.85,13a2.68,2.68,0,0,0,2.69,2.69Z"/><path class="cls-4" d="M134.54,23.84a2.77,2.77,0,1,0-2.75-2.79v0A2.77,2.77,0,0,0,134.54,23.84Z"/><path class="cls-4" d="M134.54,32a2.85,2.85,0,1,0-2.85-2.85h0A2.85,2.85,0,0,0,134.54,32Z"/><circle class="cls-4" cx="134.54" cy="37.24" r="2.93"/><path class="cls-4" d="M126.45,15.1a2.12,2.12,0,1,0-2.1-2.13h0A2.12,2.12,0,0,0,126.45,15.1Z"/><path class="cls-4" d="M126.45,23.27a2.2,2.2,0,1,0-2.19-2.2A2.2,2.2,0,0,0,126.45,23.27Z"/><path class="cls-4" d="M126.45,26.88a2.28,2.28,0,1,0,2.3,2.28,2.28,2.28,0,0,0-2.3-2.28Z"/><path class="cls-4" d="M118.37,14.53A1.55,1.55,0,1,0,116.82,13,1.55,1.55,0,0,0,118.37,14.53Z"/><path class="cls-4" d="M118.37,22.7a1.63,1.63,0,1,0-1.63-1.63h0A1.63,1.63,0,0,0,118.37,22.7Z"/><path class="cls-4" d="M118.37,27.45a1.71,1.71,0,1,0,1.71,1.71h0a1.7,1.7,0,0,0-1.71-1.71Z"/><path class="cls-4" d="M94.11,15.83A2.85,2.85,0,1,0,91.26,13h0A2.85,2.85,0,0,0,94.11,15.83Z"/><path class="cls-4" d="M94.11,18.14A2.93,2.93,0,1,0,97,21.08h0A2.93,2.93,0,0,0,94.11,18.14Z"/><path class="cls-4" d="M86,15.26A2.28,2.28,0,1,0,83.74,13,2.28,2.28,0,0,0,86,15.26Z"/><path class="cls-4" d="M86,23.43a2.37,2.37,0,1,0-2.37-2.36A2.37,2.37,0,0,0,86,23.43Z"/><path class="cls-4" d="M86,26.7a2.45,2.45,0,1,0,2.45,2.44A2.45,2.45,0,0,0,86,26.7Z"/><path class="cls-4" d="M77.94,14.69A1.71,1.71,0,1,0,76.23,13h0A1.7,1.7,0,0,0,77.94,14.69Z"/><circle class="cls-4" cx="77.94" cy="21.07" r="1.79"/><path class="cls-4" d="M77.94,27.28a1.88,1.88,0,1,0,1.87,1.88h0A1.88,1.88,0,0,0,77.94,27.28Z"/><circle class="cls-4" cx="150.71" cy="12.98" r="2.35"/><circle class="cls-4" cx="150.71" cy="21.07" r="2.46"/><circle class="cls-4" cx="150.71" cy="29.16" r="2.58"/><path class="cls-4" d="M150.73,34.54a2.71,2.71,0,1,0,2.7,2.71A2.71,2.71,0,0,0,150.73,34.54Z"/><circle class="cls-4" cx="142.63" cy="12.98" r="2.81"/><circle class="cls-4" cx="142.63" cy="21.07" r="2.93"/><circle class="cls-4" cx="110.28" cy="12.98" r="1.64"/><path class="cls-4" d="M110.28,22.83a1.76,1.76,0,1,0-1.76-1.76h0a1.76,1.76,0,0,0,1.76,1.76Z"/><path class="cls-4" d="M110.28,27.28a1.88,1.88,0,1,0,1.88,1.88h0a1.88,1.88,0,0,0-1.87-1.88Z"/><path class="cls-4" d="M102.19,15.09A2.11,2.11,0,1,0,100.08,13h0A2.11,2.11,0,0,0,102.19,15.09Z"/><path class="cls-4" d="M102.19,23.3A2.23,2.23,0,1,0,100,21.07h0a2.22,2.22,0,0,0,2.22,2.23Z"/><path class="cls-4" d="M102.19,26.81a2.35,2.35,0,1,0,2.35,2.35,2.35,2.35,0,0,0-2.35-2.35Z"/><circle class="cls-4" cx="94.11" cy="29.16" r="2.81"/><circle class="cls-4" cx="118.37" cy="142.37" r="2.85"/><path class="cls-4" d="M118.37,147.52a2.94,2.94,0,1,0,2.94,2.95,2.94,2.94,0,0,0-2.94-2.95Z"/><path class="cls-4" d="M110.28,136.48a2.2,2.2,0,1,0-2.2-2.2h0a2.19,2.19,0,0,0,2.19,2.2Z"/><path class="cls-4" d="M110.28,144.65a2.28,2.28,0,1,0-2.28-2.28h0A2.28,2.28,0,0,0,110.28,144.65Z"/><path class="cls-4" d="M110.28,148.1a2.37,2.37,0,1,0,2.37,2.37A2.37,2.37,0,0,0,110.28,148.1Z"/><path class="cls-4" d="M102.19,135.93a1.63,1.63,0,1,0-1.63-1.63h0A1.64,1.64,0,0,0,102.19,135.93Z"/><path class="cls-4" d="M102.19,144.08a1.71,1.71,0,1,0-1.71-1.71h0A1.72,1.72,0,0,0,102.19,144.08Z"/><path class="cls-4" d="M102.19,148.66a1.8,1.8,0,1,0,1.8,1.79h0A1.8,1.8,0,0,0,102.19,148.66Z"/><path class="cls-4" d="M77.94,131.35a2.93,2.93,0,1,0,2.93,2.93,2.94,2.94,0,0,0-2.93-2.93Z"/><circle class="cls-4" cx="126.45" cy="134.28" r="2.46"/><circle class="cls-4" cx="126.45" cy="142.37" r="2.58"/><circle class="cls-4" cx="126.45" cy="150.45" r="2.7"/><path class="cls-4" d="M118.37,131.35a2.93,2.93,0,1,0,2.93,2.93,2.93,2.93,0,0,0-2.93-2.93Z"/><path class="cls-4" d="M94.11,135.59a1.3,1.3,0,1,0-1.29-1.29h0a1.29,1.29,0,0,0,1.29,1.29Z"/><path class="cls-4" d="M94.11,143.78a1.41,1.41,0,1,0-1.41-1.41,1.41,1.41,0,0,0,1.41,1.41Z"/><path class="cls-4" d="M94.11,148.93a1.53,1.53,0,1,0,1.52,1.53h0A1.52,1.52,0,0,0,94.11,148.93Z"/><path class="cls-4" d="M86,136a1.76,1.76,0,1,0-1.76-1.76A1.76,1.76,0,0,0,86,136Z"/><path class="cls-4" d="M86,144.25a1.88,1.88,0,1,0-1.87-1.89h0A1.88,1.88,0,0,0,86,144.25Z"/><circle class="cls-4" cx="86.02" cy="150.45" r="1.99"/><path class="cls-4" d="M77.94,144.72a2.35,2.35,0,1,0-2.35-2.35h0A2.35,2.35,0,0,0,77.94,144.72Z"/><circle class="cls-4" cx="77.94" cy="150.45" r="2.46"/></g></g></g></svg>