<?xml version="1.0" encoding="UTF-8"?>
<svg width="42px" height="42px" viewBox="0 0 42 42" version="1.1" xmlns="http://www.w3.org/2000/svg" xmlns:xlink="http://www.w3.org/1999/xlink">
    <!-- Generator: sketchtool 61.2 (101010) - https://sketch.com -->
    <title>A5F8F082-E079-4708-A9DD-1C6EB15786D9</title>
    <desc>Created with sketchtool.</desc>
    <g id="Asset-Artboard-Page" stroke="none" stroke-width="1" fill="none" fill-rule="evenodd">
        <g id="tht-icon/business-copy-5-tht-icon/meeting-spaces">
            <g id="Group-17" transform="translate(1.000000, 3.000000)">
                <path d="M6.29344399,6.1384427 C6.68010374,5.50143258 7.51078112,5.29831813 8.14779123,5.68565267 C8.78412655,6.07231241 8.987241,6.902315 8.60058126,7.53932511 C8.21392152,8.17633523 7.38391894,8.37877488 6.74690882,7.99211514 C6.10989871,7.6054554 5.90678425,6.77545281 6.29344399,6.1384427" id="Fill-1" fill="#302A80"></path>
                <path d="M11.6925096,6.1384427 C12.0791693,5.50143258 12.9091719,5.29831813 13.546182,5.68565267 C14.1831921,6.07231241 14.3863066,6.902315 13.9996469,7.53932511 C13.6129871,8.17633523 12.7823097,8.37877488 12.1459744,7.99211514 C11.5089643,7.6054554 11.3058499,6.77545281 11.6925096,6.1384427" id="Fill-3" fill="#302A80"></path>
                <path d="M17.0909004,6.1384427 C17.4775601,5.50143258 18.3082375,5.29831813 18.9452476,5.68565267 C19.5822577,6.07231241 19.7846974,6.902315 19.3980377,7.53932511 C19.0113779,8.17633523 18.1813753,8.37877488 17.5443652,7.99211514 C16.9073551,7.6054554 16.7049155,6.77545281 17.0909004,6.1384427" id="Fill-5" fill="#302A80"></path>
                <path d="M4.68749021,0 L23.3719956,0 L23.3719956,12.1767452 C23.3719956,14.770672 21.2699972,16.8733452 18.6753956,16.8733452 L9.60339983,16.8733452 L3.59499087,22.8817542 L3.59499087,16.8564753 L0.000337399425,16.8564753 L0.000337399425,4.68715281 C0.000337399425,2.09862442 2.09828702,0 4.68749021,0 Z" id="Stroke-7" stroke="#172647" stroke-width="1.3495977"></path>
                <path d="M33.6030258,21.3108225 C33.2163661,20.6738124 32.3856887,20.4713727 31.7493534,20.8580325 C31.1123433,21.2446922 30.9092288,22.0746948 31.2958885,22.7117049 C31.6825483,23.3493898 32.5132257,23.5511547 33.149561,23.1644949 C33.7865711,22.7778352 33.9896856,21.9478326 33.6030258,21.3108225" id="Fill-9" fill="#302A80"></path>
                <path d="M28.2039602,21.3108225 C27.8173005,20.6738124 26.9872979,20.4713727 26.3502878,20.8580325 C25.7132777,21.2446922 25.5101632,22.0746948 25.8968229,22.7117049 C26.2834827,23.3493898 27.1141601,23.5511547 27.7511702,23.1644949 C28.3875055,22.7778352 28.59062,21.9478326 28.2039602,21.3108225" id="Fill-11" fill="#302A80"></path>
                <path d="M22.8055694,21.3108225 C22.4189097,20.6738124 21.5882323,20.4713727 20.951897,20.8580325 C20.3148869,21.2446922 20.1117724,22.0746948 20.4984321,22.7117049 C20.8850919,23.3493898 21.7150945,23.5511547 22.3521046,23.1644949 C22.9891147,22.7778352 23.1922292,21.9478326 22.8055694,21.3108225" id="Fill-13" fill="#302A80"></path>
                <path d="M35.2096544,11.9848999 L16.5244742,11.9848999 L16.5244742,24.1616452 C16.5244742,26.755572 18.6271475,28.8582452 21.2210742,28.8582452 L30.29307,28.8582452 L36.3014789,34.8666541 L36.3014789,28.8413752 L39.8968072,28.8413752 L39.8968072,16.6720527 C39.8968072,14.0828496 37.7981828,11.9848999 35.2096544,11.9848999 Z" id="Stroke-15" stroke="#172647" stroke-width="1.3495977"></path>
            </g>
        </g>
    </g>
</svg>