<?xml version="1.0" encoding="UTF-8"?>
<svg width="70px" preserveAspectRatio="xMinYMin meet" viewBox="0 0 70 70" version="1.1" xmlns="http://www.w3.org/2000/svg" xmlns:xlink="http://www.w3.org/1999/xlink">
    <!-- Generator: sketchtool 54.1 (76490) - https://sketchapp.com -->
    <title>D098BA3E-FFB8-4238-9F8A-CA470B1B421D</title>
    <desc>Created with sketchtool.</desc>
    <g id="Page-1" stroke="none" stroke-width="1" fill="none" fill-rule="evenodd">
        <g id="Laptop-home" transform="translate(-56.000000, -23.000000)" fill-rule="nonzero">
            <g id="menu-bar">
                <g id="tht-logo-rgb" transform="translate(56.000000, 23.000000)">
                    <g>
                        <polygon id="Path" fill="#0F2247" points="18.8933962 69.9389151 0 69.9389151 0 0 18.5285377 0 18.5285377 6.39410377 6.39410377 6.39410377 6.39410377 63.5464623 18.8933962 63.5464623"></polygon>
                        <polygon id="Path" fill="#0F2247" points="32.8537736 27.9752358 32.8537736 20.3247642 30.0966981 20.3247642 30.0966981 18.5813679 37.4103774 18.5813679 37.4103774 20.3247642 34.6599057 20.3247642 34.6599057 27.9752358"></polygon>
                        <polygon id="Path" fill="#0F2247" points="38.6849057 27.9752358 38.6849057 18.5813679 40.5009434 18.5813679 40.5009434 22.1639151 43.7169811 22.1639151 43.7169811 18.5813679 45.5330189 18.5813679 45.5330189 27.9752358 43.7169811 27.9752358 43.7169811 23.9089623 40.4959906 23.9089623 40.4959906 27.9752358"></polygon>
                        <polygon id="Path" fill="#0F2247" points="47.6495283 27.9752358 47.6495283 18.5813679 53.5929245 18.5813679 53.5929245 20.3247642 49.465566 20.3247642 49.465566 22.1639151 53.2231132 22.1639151 53.2231132 23.9089623 49.4606132 23.9089623 49.4606132 26.2301887 53.5879717 26.2301887 53.5879717 27.9752358"></polygon>
                        <polygon id="Path" fill="#0F2247" points="13.7242925 39.3865566 13.7242925 29.9926887 15.5403302 29.9926887 15.5403302 33.5752358 18.7613208 33.5752358 18.7613208 29.9926887 20.5773585 29.9926887 20.5773585 39.3865566 18.7613208 39.3865566 18.7613208 35.320283 15.5370283 35.320283 15.5370283 39.3865566"></polygon>
                        <path d="M21.3747642,39.3865566 L24.6353774,29.9926887 L26.2318396,29.9926887 L29.4792453,39.3865566 L27.5476415,39.3865566 L26.9962264,37.7488208 L23.7900943,37.7488208 L23.2386792,39.3865566 L21.3747642,39.3865566 Z M24.3926887,36.0037736 L26.4150943,36.0037736 L25.3948113,32.782783 L24.3926887,36.0037736 Z" id="Shape" fill="#0F2247"></path>
                        <path d="M33.3837264,36.1556604 L33.3837264,34.475 L37.2766509,34.475 L37.2766509,36.0582547 C37.2766509,37.0917453 36.9541667,37.9370283 36.3091981,38.5941038 C35.6653302,39.2544811 34.8332547,39.5846698 33.7997642,39.5846698 C31.6122642,39.5846698 30.3113208,37.9865566 30.3113208,34.5377358 C30.3113208,31.4108491 31.6535377,29.7879717 33.7997642,29.7879717 C34.6788534,29.7648809 35.5252809,30.1216196 36.1226415,30.7669811 C36.7568217,31.4325357 37.1286287,32.3051678 37.1693396,33.2235849 L35.4771226,33.4514151 C35.3566038,32.1768868 34.8068396,31.5313679 33.7997642,31.5313679 C32.6193396,31.5313679 32.1224057,32.3370283 32.1224057,34.5377358 C32.1224057,35.7858491 32.257783,36.6591981 32.5120283,37.128066 C32.7662736,37.596934 33.1971698,37.8396226 33.7997642,37.8396226 C34.9141509,37.8396226 35.4507075,37.1676887 35.4639151,36.1490566 L33.3837264,36.1556604 Z" id="Path" fill="#0F2247"></path>
                        <path d="M38.5908019,29.9926887 L40.4068396,29.9926887 L40.4068396,36.1110849 C40.4068396,37.1709906 40.9582547,37.8429245 42.0709906,37.8429245 C43.1837264,37.8429245 43.7351415,37.157783 43.7351415,36.1391509 L43.7351415,29.9926887 L45.5511792,29.9926887 L45.5511792,36.0582547 C45.5511792,37.0917453 45.228695,37.9370283 44.5837264,38.5941038 C43.9398585,39.2544811 43.107783,39.5846698 42.0742925,39.5846698 C41.0408019,39.5846698 40.2087264,39.2544811 39.5648585,38.5941038 C38.9209906,37.9337264 38.5990566,37.0917453 38.5990566,36.0582547 L38.5908019,29.9926887 Z" id="Path" fill="#0F2247"></path>
                        <polygon id="Path" fill="#0F2247" points="47.6495283 39.3865566 47.6495283 29.9926887 53.5929245 29.9926887 53.5929245 31.7360849 49.465566 31.7360849 49.465566 33.5752358 53.2231132 33.5752358 53.2231132 35.320283 49.4606132 35.320283 49.4606132 37.6415094 53.5879717 37.6415094 53.5879717 39.3865566"></polygon>
                        <polygon id="Path" fill="#1126A9" points="24.528066 50.7978774 24.528066 43.1474057 21.7759434 43.1474057 21.7759434 41.4040094 29.0896226 41.4040094 29.0896226 43.1474057 26.3391509 43.1474057 26.3391509 50.7978774"></polygon>
                        <polygon id="Path" fill="#1126A9" points="31.0096698 50.7978774 31.0096698 41.4040094 36.953066 41.4040094 36.953066 43.1474057 32.8257075 43.1474057 32.8257075 44.9865566 36.5832547 44.9865566 36.5832547 46.7316038 32.8207547 46.7316038 32.8207547 49.0528302 36.9481132 49.0528302 36.9481132 50.7978774"></polygon>
                        <path d="M45.6221698,47.6165094 C45.5924615,48.519767 45.2296287,49.3800982 44.6035377,50.0318396 C43.9942231,50.6745708 43.1394707,51.026563 42.2542453,50.9992925 C40.0667453,50.9992925 38.7658019,49.4011792 38.7658019,45.9523585 C38.7658019,42.8254717 40.1080189,41.2025943 42.2542453,41.2025943 C43.1420449,41.1739869 43.9987787,41.5310094 44.6035377,42.1816038 C45.2315872,42.8267147 45.5950361,43.6837942 45.6221698,44.5837264 L43.9316038,44.8660377 C43.8110849,43.5915094 43.2613208,42.9459906 42.2542453,42.9459906 C41.0738208,42.9459906 40.5768868,43.7516509 40.5768868,45.9523585 C40.5768868,47.2004717 40.7106132,48.0738208 40.9665094,48.5426887 C41.2224057,49.0115566 41.65,49.2542453 42.2542453,49.2542453 C43.2613208,49.2542453 43.8110849,48.6103774 43.9316038,47.3358491 L45.6221698,47.6165094 Z" id="Path" fill="#1126A9"></path>
                        <polygon id="Path" fill="#1126A9" points="47.0040094 50.7978774 47.0040094 41.4040094 48.8200472 41.4040094 48.8200472 44.9865566 52.0377358 44.9865566 52.0377358 41.4040094 53.8537736 41.4040094 53.8537736 50.7978774 52.0377358 50.7978774 52.0377358 46.7316038 48.8167453 46.7316038 48.8167453 50.7978774"></polygon>
                        <path d="M68.5141509,25.7167453 C68.7720494,25.7174134 69.0049253,25.5625733 69.104082,25.3244977 C69.2032388,25.0864221 69.1491255,24.812053 68.9669998,24.6294543 C68.7848741,24.4468556 68.5106463,24.3920307 68.2723143,24.4905695 C68.0339823,24.5891084 67.8785386,24.8215818 67.8785377,25.0794811 C67.8785366,25.4307887 68.1628446,25.7158352 68.5141509,25.7167453 L68.5141509,25.7167453 Z" id="Path" fill="#1126A9"></path>
                        <path d="M68.5141509,29.7037736 C68.7882254,29.7044412 69.0356533,29.5397683 69.1408458,29.2866837 C69.2460382,29.0335991 69.1882316,28.7420581 68.9944311,28.5482576 C68.8006306,28.3544571 68.5090896,28.2966505 68.256005,28.4018429 C68.0029204,28.5070353 67.8382474,28.7544633 67.8389151,29.0285377 C67.8398226,29.4010836 68.141605,29.702866 68.5141509,29.7037736 Z" id="Path" fill="#1126A9"></path>
                        <circle id="Oval" fill="#1126A9" cx="68.5075472" cy="32.9759434" r="1"></circle>
                        <path d="M68.5141509,37.6794811 C68.8201272,37.6801492 69.0963466,37.4963477 69.2139019,37.2138541 C69.3314571,36.9313604 69.2671738,36.6058641 69.051052,36.3892694 C68.8349302,36.1726747 68.5095752,36.1076801 68.2268253,36.2246176 C67.9440753,36.341555 67.7596705,36.6173721 67.7596698,36.9233491 C67.7596688,37.3403054 68.0971956,37.6785707 68.5141509,37.6794811 L68.5141509,37.6794811 Z" id="Path" fill="#1126A9"></path>
                        <path d="M68.5141509,41.6681604 C68.8361531,41.6688284 69.1268204,41.4753732 69.2505085,41.1780735 C69.3741965,40.8807738 69.3065233,40.5382351 69.0790694,40.3103084 C68.8516156,40.0823817 68.5092182,40.0139972 68.2116623,40.1370675 C67.9141064,40.2601379 67.7200479,40.5504028 67.7200472,40.8724057 C67.7200462,41.3112449 68.0753126,41.6672499 68.5141509,41.6681604 Z" id="Path" fill="#1126A9"></path>
                        <circle id="Oval" fill="#1126A9" cx="68.5075472" cy="44.8198113" r="1"></circle>
                        <circle id="Oval" fill="#1126A9" cx="68.5075472" cy="48.7688679" r="1"></circle>
                        <path d="M68.5141509,53.6308962 C68.8842308,53.6315642 69.2182417,53.4091476 69.3603283,53.06743 C69.5024148,52.7257123 69.4245716,52.3320464 69.1631217,52.0701237 C68.9016718,51.808201 68.5081471,51.7296467 68.1661733,51.8711156 C67.8241996,52.0125846 67.6011798,52.3461932 67.6011792,52.7162736 C67.6011784,53.2207617 68.0096637,53.6299856 68.5141509,53.6308962 Z" id="Path" fill="#1126A9"></path>
                        <path d="M68.5141509,57.6179245 C68.9004068,57.6185922 69.2489699,57.3863429 69.3970922,57.0296164 C69.5452145,56.6728899 69.4636783,56.2620519 69.1905538,55.9889274 C68.9174292,55.7158028 68.5065913,55.6342666 68.1498648,55.7823889 C67.7931382,55.9305112 67.5608889,56.2790743 67.5615566,56.6653302 C67.5624654,57.1910566 67.9884245,57.6170158 68.5141509,57.6179245 L68.5141509,57.6179245 Z" id="Path" fill="#1126A9"></path>
                        <circle id="Oval" fill="#1126A9" cx="68.5075472" cy="60.6127358" r="1"></circle>
                        <circle id="Oval" fill="#1126A9" cx="68.5075472" cy="64.5601415" r="1.03349057"></circle>
                        <path d="M68.5141509,67.434434 C68.0792993,67.4344345 67.6872972,67.6964713 67.5210414,68.0982859 C67.3547855,68.5001005 67.4470408,68.9625049 67.7547636,69.2697551 C68.0624864,69.5770052 68.5250321,69.6685495 68.9265906,69.5016761 C69.3281491,69.3348027 69.5895831,68.9423983 69.5889151,68.5075472 C69.5880043,67.9146162 69.1070827,67.4344333 68.5141509,67.434434 L68.5141509,67.434434 Z" id="Path" fill="#1126A9"></path>
                        <path d="M64.5601415,17.4620283 C64.673288,17.4626959 64.7756344,17.3949633 64.8192426,17.2905559 C64.8628508,17.1861486 64.8390851,17.0657423 64.7590771,16.9857343 C64.679069,16.9057262 64.5586627,16.8819605 64.4542554,16.9255687 C64.349848,16.9691769 64.2821155,17.0715233 64.282783,17.1846698 C64.2836846,17.3374757 64.4073356,17.4611268 64.5601415,17.4620283 Z" id="Path" fill="#1126A9"></path>
                        <path d="M64.5601415,21.4507075 C64.7361171,21.4507075 64.8787736,21.3080511 64.8787736,21.1320755 C64.8787736,20.9560998 64.7361171,20.8134434 64.5601415,20.8134434 C64.3841659,20.8134434 64.2415094,20.9560998 64.2415094,21.1320755 C64.2424123,21.3076758 64.3845412,21.4498047 64.5601415,21.4507075 Z" id="Path" fill="#1126A9"></path>
                        <path d="M64.5601415,25.4377358 C64.705042,25.4377358 64.8356747,25.3504499 64.8911257,25.2165793 C64.9465767,25.0827087 64.915926,24.9286169 64.8134658,24.8261568 C64.7110057,24.7236967 64.556914,24.6930459 64.4230434,24.7484969 C64.2891728,24.803948 64.2018868,24.9345806 64.2018868,25.0794811 C64.2014453,25.1746309 64.239048,25.2660111 64.3063298,25.3332929 C64.3736115,25.4005746 64.4649918,25.4381774 64.5601415,25.4377358 Z" id="Path" fill="#1126A9"></path>
                        <path d="M64.5601415,29.4264151 C64.7798831,29.4264151 64.9580189,29.2482793 64.9580189,29.0285377 C64.9580189,28.8087961 64.7798831,28.6306604 64.5601415,28.6306604 C64.3403999,28.6306604 64.1622642,28.8087961 64.1622642,29.0285377 C64.1631688,29.2479035 64.3407757,29.4255105 64.5601415,29.4264151 Z" id="Path" fill="#1126A9"></path>
                        <circle id="Oval" fill="#1126A9" cx="64.5601415" cy="32.9759434" r="1"></circle>
                        <circle id="Oval" fill="#1126A9" cx="64.5601415" cy="36.9233491" r="1"></circle>
                        <path d="M64.5601415,41.3891509 C64.7691455,41.3891509 64.9575695,41.26325 65.0375519,41.0701555 C65.1175343,40.877061 65.0733237,40.6547997 64.9255356,40.5070116 C64.7777475,40.3592235 64.5554861,40.3150129 64.3623917,40.3949953 C64.1692972,40.4749776 64.0433962,40.6634017 64.0433962,40.8724057 C64.0433962,41.1577962 64.274751,41.3891509 64.5601415,41.3891509 L64.5601415,41.3891509 Z" id="Path" fill="#1126A9"></path>
                        <circle id="Oval" fill="#1126A9" cx="64.5601415" cy="44.8198113" r="1"></circle>
                        <path d="M64.5601415,49.3632075 C64.8021641,49.3638752 65.0206962,49.2185098 65.113623,48.9950372 C65.2065497,48.7715646 65.155523,48.5141084 64.9843865,48.3429719 C64.8132501,48.1718355 64.5557939,48.1208088 64.3323213,48.2137355 C64.1088487,48.3066623 63.9634833,48.5251944 63.9641509,48.767217 C63.9641509,48.9252835 64.0269426,49.076876 64.1387125,49.188646 C64.2504825,49.3004159 64.402075,49.3632075 64.5601415,49.3632075 L64.5601415,49.3632075 Z" id="Path" fill="#1126A9"></path>
                        <path d="M64.5601415,53.3518868 C64.9109646,53.3509756 65.1947099,53.0659996 65.1941028,52.7151758 C65.1934957,52.364352 64.9087659,52.0803598 64.5579417,52.0806628 C64.2071175,52.0809657 63.9228785,52.3654493 63.9228774,52.7162736 C63.9228768,52.8851351 63.9900696,53.0470565 64.1096275,53.1663047 C64.2291854,53.2855529 64.3912805,53.3523254 64.5601415,53.3518868 L64.5601415,53.3518868 Z" id="Path" fill="#1126A9"></path>
                        <circle id="Oval" fill="#1126A9" cx="68.5075472" cy="17.1846698" r="1.37358491"></circle>
                        <circle id="Oval" fill="#1126A9" cx="68.5075472" cy="21.1320755" r="1.43136792"></circle>
                        <circle id="Oval" fill="#1126A9" cx="64.5601415" cy="56.6653302" r="1"></circle>
                        <circle id="Oval" fill="#1126A9" cx="64.5601415" cy="60.6127358" r="1"></circle>
                        <circle id="Oval" fill="#1126A9" cx="64.5601415" cy="64.5601415" r="1"></circle>
                        <circle id="Oval" fill="#1126A9" cx="64.5601415" cy="68.5075472" r="1"></circle>
                        <circle id="Oval" fill="#1126A9" cx="60.6127358" cy="17.1846698" r="1"></circle>
                        <circle id="Oval" fill="#1126A9" cx="60.6127358" cy="21.1320755" r="1"></circle>
                        <path d="M60.6127358,25.5384434 C60.7983688,25.5384434 60.9657231,25.4266208 61.0367617,25.2551184 C61.1078003,25.0836159 61.0685335,24.8862081 60.9372712,24.7549458 C60.8060089,24.6236835 60.608601,24.5844167 60.4370986,24.6554553 C60.2655962,24.7264939 60.1537736,24.8938482 60.1537736,25.0794811 C60.1537736,25.332959 60.359258,25.5384434 60.6127358,25.5384434 Z" id="Path" fill="#1126A9"></path>
                        <path d="M60.6127358,29.5518868 C60.8972146,29.5518868 61.1278302,29.3212712 61.1278302,29.0367925 C61.1278302,28.7523137 60.8972146,28.5216981 60.6127358,28.5216981 C60.3282571,28.5216981 60.0976415,28.7523137 60.0976415,29.0367925 C60.0976415,29.3212712 60.3282571,29.5518868 60.6127358,29.5518868 Z" id="Path" fill="#1126A9"></path>
                        <path d="M60.6127358,33.5488208 C60.9291273,33.5488208 61.1856132,33.2923348 61.1856132,32.9759434 C61.1856132,32.659552 60.9291273,32.403066 60.6127358,32.403066 C60.2963444,32.403066 60.0398585,32.659552 60.0398585,32.9759434 C60.0398585,33.2923348 60.2963444,33.5488208 60.6127358,33.5488208 L60.6127358,33.5488208 Z" id="Path" fill="#1126A9"></path>
                        <circle id="Oval" fill="#1126A9" cx="60.6127358" cy="36.9233491" r="1"></circle>
                        <path d="M60.6127358,41.5591981 C60.8914846,41.5598658 61.1431264,41.3923771 61.2501076,41.1349741 C61.3570888,40.8775711 61.2982935,40.5810594 61.1011878,40.3839537 C60.9040821,40.186848 60.6075704,40.1280527 60.3501674,40.2350339 C60.0927644,40.3420151 59.9252757,40.593657 59.9259434,40.8724057 C59.9259434,41.2517107 60.2334309,41.5591981 60.6127358,41.5591981 Z" id="Path" fill="#1126A9"></path>
                        <circle id="Oval" fill="#1126A9" cx="60.6127358" cy="44.8198113" r="1"></circle>
                        <circle id="Oval" fill="#1126A9" cx="60.6127358" cy="48.7688679" r="1"></circle>
                        <path d="M60.6127358,53.5747642 C61.0868671,53.5747642 61.4712264,53.1904048 61.4712264,52.7162736 C61.4712264,52.2421423 61.0868671,51.857783 60.6127358,51.857783 C60.1386046,51.857783 59.7542453,52.2421423 59.7542453,52.7162736 C59.7542453,52.9439594 59.8446931,53.1623199 60.0056913,53.3233181 C60.1666896,53.4843163 60.38505,53.5747642 60.6127358,53.5747642 Z" id="Path" fill="#1126A9"></path>
                        <path d="M60.6127358,57.5816038 C61.1187798,57.5816038 61.5290094,57.1713741 61.5290094,56.6653302 C61.5290094,56.1592863 61.1187798,55.7490566 60.6127358,55.7490566 C60.1066919,55.7490566 59.6964623,56.1592863 59.6964623,56.6653302 C59.6973709,57.1709973 60.1070688,57.5806951 60.6127358,57.5816038 Z" id="Path" fill="#1126A9"></path>
                        <circle id="Oval" fill="#1126A9" cx="60.6127358" cy="60.6127358" r="1"></circle>
                        <circle id="Oval" fill="#1126A9" cx="60.6127358" cy="64.5601415" r="1.03018868"></circle>
                        <circle id="Oval" fill="#1126A9" cx="60.6127358" cy="68.5075472" r="1.0879717"></circle>
                        <path d="M64.5601415,9.48632075 C64.6693369,9.48541076 64.7572061,9.39631356 64.7566007,9.28711608 C64.7559953,9.1779186 64.6671436,9.08980116 64.5579448,9.09010197 C64.4487461,9.09040278 64.3603812,9.17900839 64.3603774,9.28820755 C64.3612838,9.39788896 64.4504563,9.4863245 64.5601415,9.48632075 L64.5601415,9.48632075 Z" id="Path" fill="#1126A9"></path>
                        <path d="M64.5601415,12.9978774 C64.4630214,12.9972098 64.3751231,13.0552885 64.3376478,13.1448896 C64.3001725,13.2344908 64.3205483,13.3378546 64.3892242,13.4065305 C64.4579001,13.4752065 64.5612639,13.4955822 64.6508651,13.4581069 C64.7404663,13.4206316 64.7985449,13.3327334 64.7978774,13.2356132 C64.7983208,13.1724268 64.7734161,13.1116998 64.7287355,13.0670192 C64.6840549,13.0223386 64.6233279,12.9974339 64.5601415,12.9978774 L64.5601415,12.9978774 Z" id="Path" fill="#1126A9"></path>
                        <path d="M60.6127358,2.70259434 C61.3364822,2.70168282 61.922541,2.11439269 61.9219335,1.39064604 C61.921326,0.666899389 61.3342821,0.0805939239 60.6105353,0.0808973813 C59.8867884,0.0812008387 59.3002364,0.667998377 59.3002358,1.39174528 C59.3002356,1.7396903 59.4385691,2.07336033 59.6847582,2.31923973 C59.9309472,2.56511912 60.2647911,2.70303256 60.6127358,2.70259434 L60.6127358,2.70259434 Z" id="Path" fill="#1126A9"></path>
                        <path d="M60.6127358,6.69127358 C61.1603572,6.69461688 61.655918,6.36731097 61.8678043,5.86233125 C62.0796905,5.35735153 61.9660551,4.77443075 61.5800086,4.38601294 C61.1939621,3.99759513 60.6117481,3.88039222 60.1054803,4.08918222 C59.5992125,4.29797221 59.2688781,4.79151939 59.2688679,5.33915094 C59.2679496,6.08306852 59.8688266,6.68763641 60.6127358,6.69127358 Z" id="Path" fill="#1126A9"></path>
                        <path d="M60.6127358,10.6783019 C61.1757944,10.6783015 61.6833794,10.3390347 61.898698,9.81877245 C62.1140167,9.29851016 61.9946419,8.69976639 61.5962632,8.30186021 C61.1978844,7.90395403 60.5989994,7.78529006 60.078993,8.00122607 C59.5589867,8.21716207 59.2203226,8.72514937 59.2209906,9.28820755 C59.2209903,9.65716971 59.3676729,10.0109961 59.6287233,10.2717368 C59.8897737,10.5324776 60.2437739,10.6787401 60.6127358,10.6783019 L60.6127358,10.6783019 Z" id="Path" fill="#1126A9"></path>
                        <circle id="Oval" fill="#1126A9" cx="60.6127358" cy="13.2356132" r="1.43136792"></circle>
                        <path d="M56.6636792,2.42523585 C57.0822777,2.42791065 57.4611479,2.17781174 57.6231954,1.79184225 C57.7852429,1.40587276 57.6984593,0.960271264 57.4034097,0.663324205 C57.1083601,0.366377147 56.663324,0.276738954 56.2763237,0.436308994 C55.8893234,0.595879034 55.636801,0.973138258 55.6367925,1.39174528 C55.6367809,1.95995734 56.0954788,2.4216051 56.6636792,2.42523585 L56.6636792,2.42523585 Z" id="Path" fill="#1126A9"></path>
                        <path d="M56.6636792,6.41226415 C57.2563433,6.41226415 57.7367925,5.931815 57.7367925,5.33915094 C57.7367925,4.74648688 57.2563433,4.26603774 56.6636792,4.26603774 C56.0710152,4.26603774 55.590566,4.74648688 55.590566,5.33915094 C55.590566,5.931815 56.0710152,6.41226415 56.6636792,6.41226415 Z" id="Path" fill="#1126A9"></path>
                        <path d="M56.6636792,8.1754717 C56.050005,8.17911375 55.5551314,8.67890372 55.5575559,9.29258395 C55.5599803,9.90626418 56.0587874,10.4021285 56.6724712,10.4009216 C57.2861551,10.3997148 57.7830081,9.90189256 57.7830189,9.28820755 C57.7830241,8.9919439 57.6648837,8.70790979 57.4547748,8.49904046 C57.2446659,8.29017114 56.9599377,8.17371346 56.6636792,8.1754717 L56.6636792,8.1754717 Z" id="Path" fill="#1126A9"></path>
                        <path d="M52.7162736,2.14622642 C53.1327459,2.14531509 53.4697102,1.80711991 53.469103,1.39064706 C53.4684958,0.974174212 53.1305467,0.636963048 52.7140735,0.637266157 C52.2976003,0.637569266 51.9601425,0.97527199 51.9601415,1.39174528 C51.9610519,1.80870062 52.2993173,2.14622741 52.7162736,2.14622642 L52.7162736,2.14622642 Z" id="Path" fill="#1126A9"></path>
                        <path d="M52.7162736,6.13490566 C53.0382757,6.13557372 53.3289431,5.94211844 53.4526311,5.64481878 C53.5763192,5.34751913 53.5086459,5.0049804 53.2811921,4.77705371 C53.0537383,4.54912701 52.7113408,4.48074247 52.4137849,4.60381282 C52.116229,4.72688317 51.9221705,5.01714812 51.9221698,5.33915094 C51.9221689,5.77799021 52.2774353,6.13399521 52.7162736,6.13490566 L52.7162736,6.13490566 Z" id="Path" fill="#1126A9"></path>
                        <path d="M52.7162736,8.45283019 C52.3782455,8.45216215 52.0731303,8.65527121 51.9433094,8.96737686 C51.8134886,9.27948251 51.8845518,9.63906366 52.1233377,9.87832235 C52.3621235,10.117581 52.7215634,10.1893555 53.0339252,10.0601523 C53.3462871,9.93094907 53.5499993,9.62623624 53.55,9.28820755 C53.5504384,9.06680365 53.4627932,8.85431769 53.3063917,8.69760641 C53.1499901,8.54089513 52.9376779,8.45282975 52.7162736,8.45283019 L52.7162736,8.45283019 Z" id="Path" fill="#1126A9"></path>
                        <path d="M40.8724057,2.78349057 C41.6410454,2.78349057 42.2641509,2.16038498 42.2641509,1.39174528 C42.2641509,0.623105588 41.6410454,4.70656071e-17 40.8724057,0 C40.103766,-4.70656071e-17 39.4806604,0.623105588 39.4806604,1.39174528 C39.4806604,2.16038498 40.103766,2.78349057 40.8724057,2.78349057 Z" id="Path" fill="#1126A9"></path>
                        <path d="M40.8724057,3.90943396 C40.2931714,3.90876626 39.770632,4.2572629 39.5486601,4.79227804 C39.3266882,5.32729318 39.449045,5.94335019 39.8586257,6.3529309 C40.2682064,6.76251162 40.8842634,6.88486842 41.4192786,6.66289653 C41.9542937,6.44092464 42.3027903,5.91838516 42.3021226,5.33915094 C42.3012129,4.54991721 41.6616394,3.91034374 40.8724057,3.90943396 Z" id="Path" fill="#1126A9"></path>
                        <path d="M36.9233491,2.50448113 C37.5378961,2.50448113 38.0360849,2.00629232 38.0360849,1.39174528 C38.0360849,0.777198243 37.5378961,0.279009434 36.9233491,0.279009434 C36.308802,0.279009434 35.8106132,0.777198243 35.8106132,1.39174528 C35.8101742,1.68699555 35.9272675,1.97027943 36.1360412,2.17905313 C36.3448149,2.38782682 36.6280988,2.50492017 36.9233491,2.50448113 Z" id="Path" fill="#1126A9"></path>
                        <path d="M36.9233491,6.49316038 C37.5616027,6.49316038 38.0790094,5.9757536 38.0790094,5.3375 C38.0790094,4.6992464 37.5616027,4.18183962 36.9233491,4.18183962 C36.2850955,4.18183962 35.7676887,4.6992464 35.7676887,5.3375 C35.7676887,5.9757536 36.2850955,6.49316038 36.9233491,6.49316038 Z" id="Path" fill="#1126A9"></path>
                        <path d="M36.9233491,8.08962264 C36.2652517,8.09053413 35.7324119,8.62460521 35.7330194,9.28270288 C35.7336268,9.94080055 36.2674517,10.473887 36.9255496,10.4735836 C37.5836474,10.4732802 38.1169805,9.93970173 38.1169811,9.28160377 C38.1169814,8.96518447 37.9911715,8.66174894 37.7672744,8.4381616 C37.5433774,8.21457425 37.2397681,8.08918439 36.9233491,8.08962264 Z" id="Path" fill="#1126A9"></path>
                        <path d="M32.9759434,2.22712264 C33.3139714,2.22779068 33.6190867,2.02468162 33.7489075,1.71257597 C33.8787284,1.40047032 33.8076652,1.04088917 33.5688793,0.801630482 C33.3300935,0.562371793 32.9706536,0.490597339 32.6582918,0.61980055 C32.3459299,0.749003762 32.1422176,1.05371659 32.142217,1.39174528 C32.1431214,1.85209251 32.5155989,2.22530756 32.9759434,2.22712264 L32.9759434,2.22712264 Z" id="Path" fill="#1126A9"></path>
                        <circle id="Oval" fill="#1126A9" cx="32.9759434" cy="5.33915094" r="1"></circle>
                        <path d="M32.9759434,8.37358491 C32.4708113,8.37358491 32.0613208,8.78307541 32.0613208,9.28820755 C32.0613208,9.79333968 32.4708113,10.2028302 32.9759434,10.2028302 C33.4810755,10.2028302 33.890566,9.79333968 33.890566,9.28820755 C33.890566,8.78307541 33.4810755,8.37358491 32.9759434,8.37358491 L32.9759434,8.37358491 Z" id="Path" fill="#1126A9"></path>
                        <circle id="Oval" fill="#1126A9" cx="68.5075472" cy="1.39174528" r="1.14575472"></circle>
                        <circle id="Oval" fill="#1126A9" cx="68.5075472" cy="5.33915094" r="1.20188679"></circle>
                        <circle id="Oval" fill="#1126A9" cx="68.5075472" cy="9.28820755" r="1.25966981"></circle>
                        <path d="M68.5141509,11.9181604 C67.7847183,11.9181604 67.1933962,12.5094824 67.1933962,13.2389151 C67.1933962,13.9683478 67.7847183,14.5596698 68.5141509,14.5596698 C69.2435836,14.5596698 69.8349057,13.9683478 69.8349057,13.2389151 C69.8349057,12.5094824 69.2435836,11.9181604 68.5141509,11.9181604 Z" id="Path" fill="#1126A9"></path>
                        <circle id="Oval" fill="#1126A9" cx="64.5601415" cy="1.39174528" r="1.37358491"></circle>
                        <circle id="Oval" fill="#1126A9" cx="64.5601415" cy="5.33915094" r="1.43136792"></circle>
                        <circle id="Oval" fill="#1126A9" cx="48.7688679" cy="1.39174528" r="1"></circle>
                        <path d="M48.7688679,6.19929245 C49.1169121,6.19996049 49.4310573,5.99081781 49.5647112,5.66945841 C49.6983651,5.34809901 49.6251831,4.97786635 49.3793147,4.73152517 C49.1334464,4.48518399 48.763355,4.41129083 48.4417394,4.54432708 C48.1201238,4.67736333 47.910378,4.99110608 47.9103774,5.33915094 C47.909939,5.56712271 48.0001932,5.78590751 48.161239,5.94726297 C48.3222847,6.10861843 48.5408957,6.19929287 48.7688679,6.19929245 Z" id="Path" fill="#1126A9"></path>
                        <path d="M48.7688679,8.37193396 C48.3981203,8.37126595 48.0635074,8.59408481 47.9211653,8.93641936 C47.7788233,9.27875392 47.8568077,9.67313 48.1187298,9.93552484 C48.3806518,10.1979197 48.7748866,10.2766152 49.1174773,10.1348908 C49.460068,9.9931663 49.68349,9.65895573 49.6834906,9.28820755 C49.6839289,9.04534862 49.5877607,8.81228642 49.4161882,8.64040416 C49.2446156,8.46852191 49.0117272,8.37193357 48.7688679,8.37193396 Z" id="Path" fill="#1126A9"></path>
                        <path d="M44.8198113,2.42193396 C45.3887688,2.42193396 45.85,1.96070278 45.85,1.39174528 C45.85,0.822787786 45.3887688,0.361556604 44.8198113,0.361556604 C44.2508538,0.361556604 43.7896226,0.822787786 43.7896226,1.39174528 C43.7896226,1.96070278 44.2508538,2.42193396 44.8198113,2.42193396 Z" id="Path" fill="#1126A9"></path>
                        <path d="M44.8198113,6.42712264 C45.2600044,6.42779061 45.6572248,6.16313875 45.8261424,5.75664491 C45.9950601,5.35015108 45.9023858,4.88192453 45.5913583,4.57042439 C45.2803309,4.25892426 44.8122456,4.16553902 44.4054957,4.33383918 C43.9987459,4.50213933 43.7334911,4.89895734 43.7334906,5.33915094 C43.7330523,5.62754706 43.8473101,5.90428132 44.0510823,6.10836318 C44.2548544,6.31244505 44.5314149,6.42712297 44.8198113,6.42712264 L44.8198113,6.42712264 Z" id="Path" fill="#1126A9"></path>
                        <path d="M44.8198113,8.14245283 C44.1870285,8.14245283 43.6740566,8.65542469 43.6740566,9.28820755 C43.6740566,9.9209904 44.1870285,10.4339623 44.8198113,10.4339623 C45.4525942,10.4339623 45.965566,9.9209904 45.965566,9.28820755 C45.965566,8.9843345 45.8448529,8.69290731 45.6299823,8.47803662 C45.4151116,8.26316593 45.1236844,8.14245283 44.8198113,8.14245283 Z" id="Path" fill="#1126A9"></path>
                        <circle id="Oval" fill="#1126A9" cx="40.8724057" cy="9.28820755" r="1.37358491"></circle>
                        <circle id="Oval" fill="#1126A9" cx="52.7162736" cy="64.5601415" r="1.39174528"></circle>
                        <path d="M52.7162736,67.0761792 C51.9270447,67.0780083 51.2882179,67.7183212 51.2882228,68.5075522 C51.2882277,69.2967832 51.9270624,69.9370882 52.7162913,69.9389074 C53.5055203,69.9407267 54.1473001,69.3033736 54.1509434,68.5141509 C54.1527038,68.1328128 54.002223,67.7665369 53.7328834,67.4965774 C53.4635438,67.2266179 53.0976148,67.0752955 52.7162736,67.0761792 Z" id="Path" fill="#1126A9"></path>
                        <path d="M48.7688679,61.6858491 C49.2037196,61.6858485 49.5957216,61.4238117 49.7619775,61.0219971 C49.9282334,60.6201826 49.8359781,60.1577781 49.5282553,59.850528 C49.2205325,59.5432779 48.7579868,59.4517336 48.3564282,59.6186069 C47.9548697,59.7854803 47.6934358,60.1778847 47.6941038,60.6127358 C47.6936632,60.8977643 47.8068084,61.1712214 48.0085091,61.3726122 C48.2102098,61.5740031 48.4838405,61.6867278 48.7688679,61.6858491 Z" id="Path" fill="#1126A9"></path>
                        <path d="M48.7688679,65.6728774 C49.383415,65.6728774 49.8816038,65.1746885 49.8816038,64.5601415 C49.8816038,63.9455945 49.383415,63.4474057 48.7688679,63.4474057 C48.1543209,63.4474057 47.6561321,63.9455945 47.6561321,64.5601415 C47.6561321,64.8552574 47.7733664,65.1382861 47.9820449,65.3469646 C48.1907233,65.555643 48.473752,65.6728774 48.7688679,65.6728774 L48.7688679,65.6728774 Z" id="Path" fill="#1126A9"></path>
                        <path d="M48.7688679,67.3584906 C48.1306143,67.3584906 47.6132075,67.8758973 47.6132075,68.5141509 C47.6132075,69.1524045 48.1306143,69.6698113 48.7688679,69.6698113 C49.4071215,69.6698113 49.9245283,69.1524045 49.9245283,68.5141509 C49.9245283,67.8758973 49.4071215,67.3584906 48.7688679,67.3584906 Z" id="Path" fill="#1126A9"></path>
                        <path d="M44.8198113,61.4150943 C45.1418141,61.4150936 45.4320791,61.2210351 45.5551494,60.9234792 C45.6782198,60.6259233 45.6098353,60.2835259 45.3819086,60.0560721 C45.1539819,59.8286182 44.8114431,59.760945 44.5141435,59.884633 C44.2168438,60.0083211 44.0233885,60.2989884 44.0240566,60.6209906 C44.0249671,61.0598289 44.3809721,61.4150953 44.8198113,61.4150943 Z" id="Path" fill="#1126A9"></path>
                        <path d="M44.8198113,65.3955189 C45.2811775,65.3955189 45.6551887,65.0215077 45.6551887,64.5601415 C45.6551887,64.0987753 45.2811775,63.7247642 44.8198113,63.7247642 C44.3584451,63.7247642 43.984434,64.0987753 43.984434,64.5601415 C43.984434,65.0215077 44.3584451,65.3955189 44.8198113,65.3955189 Z" id="Path" fill="#1126A9"></path>
                        <path d="M44.8198113,67.6325472 C44.3365622,67.6325472 43.9448113,68.024298 43.9448113,68.5075472 C43.9448113,68.9907963 44.3365622,69.3825472 44.8198113,69.3825472 C45.3030605,69.3825472 45.6948113,68.9907963 45.6948113,68.5075472 C45.6948113,68.024298 45.3030605,67.6325472 44.8198113,67.6325472 Z" id="Path" fill="#1126A9"></path>
                        <path d="M32.9759434,59.1813679 C32.1854207,59.1813679 31.5445755,59.8222132 31.5445755,60.6127358 C31.5445755,61.4032585 32.1854207,62.0441038 32.9759434,62.0441038 C33.7664661,62.0441038 34.4073113,61.4032585 34.4073113,60.6127358 C34.4073113,59.8222132 33.7664661,59.1813679 32.9759434,59.1813679 L32.9759434,59.1813679 Z" id="Path" fill="#1126A9"></path>
                        <circle id="Oval" fill="#1126A9" cx="56.6636792" cy="60.6127358" r="1.20188679"></circle>
                        <circle id="Oval" fill="#1126A9" cx="56.6636792" cy="64.5601415" r="1.25966981"></circle>
                        <circle id="Oval" fill="#1126A9" cx="56.6636792" cy="68.5075472" r="1.31745283"></circle>
                        <path d="M52.7162736,59.1813679 C51.9257509,59.1813679 51.2849057,59.8222132 51.2849057,60.6127358 C51.2849057,61.4032585 51.9257509,62.0441038 52.7162736,62.0441038 C53.5067963,62.0441038 54.1476415,61.4032585 54.1476415,60.6127358 C54.1476415,60.2331135 53.9968371,59.8690394 53.7284036,59.6006059 C53.45997,59.3321723 53.095896,59.1813679 52.7162736,59.1813679 L52.7162736,59.1813679 Z" id="Path" fill="#1126A9"></path>
                        <path d="M40.8724057,61.25 C41.127634,61.2499991 41.3576994,61.0961644 41.4552162,60.8603 C41.5527329,60.6244357 41.498473,60.3530483 41.3177629,60.1728113 C41.1370528,59.9925743 40.8655242,59.9390259 40.6299162,60.0371606 C40.3943083,60.1352952 40.2410771,60.3657631 40.2417453,60.6209906 C40.2417447,60.7881007 40.3082417,60.9483424 40.4265612,61.0663521 C40.5448807,61.1843618 40.7052961,61.2504386 40.8724057,61.25 L40.8724057,61.25 Z" id="Path" fill="#1126A9"></path>
                        <path d="M40.8724057,65.246934 C41.2514944,65.2460227 41.5581534,64.9381329 41.5575463,64.5590435 C41.5569391,64.1799542 41.2492954,63.8730482 40.8702057,63.8733513 C40.491116,63.8736543 40.1839634,64.1810517 40.1839623,64.5601415 C40.1839617,64.7425766 40.2565466,64.9175156 40.3857025,65.0463617 C40.5148583,65.1752079 40.6899711,65.2473725 40.8724057,65.246934 Z" id="Path" fill="#1126A9"></path>
                        <path d="M40.8724057,67.7629717 C40.5711037,67.7623036 40.2990981,67.9432894 40.1833316,68.2214647 C40.0675651,68.4996399 40.1308597,68.8201655 40.3436763,69.033455 C40.556493,69.2467446 40.8768773,69.3107505 41.1553088,69.1956017 C41.4337403,69.080453 41.6153294,68.8088499 41.6153302,68.5075472 C41.6153312,68.0969734 41.2829785,67.7638821 40.8724057,67.7629717 L40.8724057,67.7629717 Z" id="Path" fill="#1126A9"></path>
                        <path d="M36.9233491,61.4712264 C37.2705761,61.4712264 37.5836129,61.2620619 37.7164909,60.941266 C37.8493689,60.62047 37.7759201,60.2512179 37.5303936,60.0056913 C37.284867,59.7601648 36.9156149,59.686716 36.5948189,59.819594 C36.274023,59.952472 36.0648585,60.2655088 36.0648585,60.6127358 C36.0648585,61.0868671 36.4492178,61.4712264 36.9233491,61.4712264 L36.9233491,61.4712264 Z" id="Path" fill="#1126A9"></path>
                        <path d="M36.9233491,65.4764151 C37.2940966,65.4770831 37.6287096,65.2542643 37.7710517,64.9119297 C37.9133937,64.5695951 37.8354093,64.1752191 37.5734872,63.9128242 C37.3115652,63.6504294 36.9173304,63.5717338 36.5747397,63.7134583 C36.232149,63.8551828 36.008727,64.1893933 36.0087264,64.5601415 C36.008288,64.8030004 36.1044562,65.0360626 36.2760288,65.2079449 C36.4476013,65.3798271 36.6804897,65.4764155 36.9233491,65.4764151 L36.9233491,65.4764151 Z" id="Path" fill="#1126A9"></path>
                        <circle id="Oval" fill="#1126A9" cx="36.9233491" cy="68.5075472" r="1"></circle>
                        <path d="M32.9759434,65.7075472 C33.4395076,65.7082151 33.8577977,65.4294849 34.0356591,65.001399 C34.2135205,64.5733131 34.1159025,64.080233 33.7883492,63.752207 C33.4607959,63.4241811 32.9678571,63.3258522 32.5395152,63.5030961 C32.1111732,63.68034 31.8318401,64.0982278 31.8318396,64.5617925 C31.831839,65.1939311 32.3438054,65.7066363 32.9759434,65.7075472 L32.9759434,65.7075472 Z" id="Path" fill="#1126A9"></path>
                        <circle id="Oval" fill="#1126A9" cx="32.9759434" cy="68.5075472" r="1.20188679"></circle>
                    </g>
                </g>
            </g>
        </g>
    </g>
</svg>