<svg xmlns="http://www.w3.org/2000/svg" viewBox="0 0 54 50.27"><defs><style>.cls-1{fill:#1126a9;}.cls-2{fill:#20201e;}</style></defs><title>tht-icon-stories</title><g id="Layer_2" data-name="Layer 2"><g id="picto"><circle class="cls-1" cx="9" cy="20.27" r="2"/><circle class="cls-1" cx="9" cy="2.27" r="2"/><circle class="cls-1" cx="2" cy="15.27" r="2"/><circle class="cls-1" cx="2" cy="6.27" r="2"/><circle class="cls-1" cx="16" cy="10.27" r="2"/><circle class="cls-1" cx="9" cy="12.27" r="2"/><circle class="cls-1" cx="45" cy="16" r="2"/><circle class="cls-1" cx="38" cy="16" r="2"/><circle class="cls-1" cx="52" cy="16" r="2"/><circle class="cls-1" cx="45" cy="9" r="2"/><circle class="cls-1" cx="38" cy="9" r="2"/><circle class="cls-1" cx="52" cy="9" r="2"/><circle class="cls-1" cx="45" cy="2" r="2"/><circle class="cls-1" cx="38" cy="2" r="2"/><circle class="cls-1" cx="52" cy="2" r="2"/><circle class="cls-1" cx="14" cy="36.27" r="2"/><circle class="cls-1" cx="35" cy="31.27" r="2"/><circle class="cls-1" cx="27" cy="48.27" r="2"/><path class="cls-2" d="M27,35.51a12.09,12.09,0,0,0,5.37-1.26,4,4,0,0,1-1.13-1.67,10.15,10.15,0,0,1-4.24.93,9.91,9.91,0,0,1-10-9.8H15A11.91,11.91,0,0,0,27,35.51Z"/><path class="cls-2" d="M37.93,28.56A11.59,11.59,0,0,0,39,23.71H37a9.52,9.52,0,0,1-.77,3.77A3.91,3.91,0,0,1,37.93,28.56Z"/><path class="cls-2" d="M16.57,39.3A19.07,19.07,0,0,0,27,42.38,18.85,18.85,0,0,0,46,23.71H44A16.86,16.86,0,0,1,27,40.38a17.13,17.13,0,0,1-9.27-2.71A3.88,3.88,0,0,1,16.57,39.3Z"/><path class="cls-2" d="M12.6,32.53A16.29,16.29,0,0,1,10,23.71H8a18.31,18.31,0,0,0,3,10A3.88,3.88,0,0,1,12.6,32.53Z"/><path class="cls-2" d="M53,23.71H51A24,24,0,0,1,30.88,47.33a4.1,4.1,0,0,1,.12.94,3.94,3.94,0,0,1-.17,1.09A26,26,0,0,0,53,23.71Z"/><path class="cls-2" d="M23.12,47.33A24,24,0,0,1,3,23.71H1A26,26,0,0,0,23.17,49.36,3.94,3.94,0,0,1,23,48.27,4.1,4.1,0,0,1,23.12,47.33Z"/></g></g></svg>