<svg xmlns="http://www.w3.org/2000/svg" viewBox="0 0 423.63 423.63"><defs><style>.cls-1{fill:#ffffff;}.cls-2{fill:#ffffff;}</style></defs><title>tht-logo-rgb</title><g id="Layer_2" data-name="Layer 2"><g id="Layer_1-2" data-name="Layer 1"><polygon class="cls-1" points="114.44 423.63 0 423.63 0 0 112.23 0 112.23 38.73 38.73 38.73 38.73 384.91 114.44 384.91 114.44 423.63"/><path class="cls-1" d="M199,169.45V123.11H182.3V112.55h44.3v10.56H209.94v46.34Z"/><path class="cls-1" d="M234.32,169.45v-56.9h11v21.7H264.8v-21.7h11v56.9h-11V144.82H245.29v24.63Z"/><path class="cls-1" d="M288.62,169.45v-56.9h36v10.56h-25v11.14h22.76v10.57H299.59v14.06h25v10.57Z"/><path class="cls-1" d="M83.13,238.57v-56.9h11v21.7h19.51v-21.7h11v56.9h-11V213.94H94.11v24.63Z"/><path class="cls-1" d="M129.47,238.57l19.75-56.9h9.67l19.67,56.9h-11.7l-3.34-9.92H144.1l-3.34,9.92Zm18.28-20.49H160l-6.18-19.51Z"/><path class="cls-1" d="M202.21,219V208.82h23.58v9.59q0,9.39-5.86,15.36c-3.9,4-8.94,6-15.2,6-13.25,0-21.13-9.68-21.13-30.57,0-18.94,8.13-28.77,21.13-28.77a18.51,18.51,0,0,1,14.07,5.93,23.05,23.05,0,0,1,6.34,14.88l-10.25,1.38c-.73-7.72-4.06-11.63-10.16-11.63-7.15,0-10.16,4.88-10.16,18.21,0,7.56.82,12.85,2.36,15.69s4.15,4.31,7.8,4.31c6.75,0,10-4.07,10.08-10.24Z"/><path class="cls-1" d="M233.75,181.67h11v37.06c0,6.42,3.34,10.49,10.08,10.49s10.08-4.15,10.08-10.32V181.67h11v36.74q0,9.39-5.86,15.36c-3.9,4-8.94,6-15.2,6s-11.3-2-15.2-6-5.85-9.1-5.85-15.36Z"/><path class="cls-1" d="M288.62,238.57v-56.9h36v10.56h-25v11.14h22.76v10.57H299.59V228h25v10.57Z"/><path class="cls-2" d="M148.57,307.69V261.35H131.9V250.79h44.3v10.56H159.54v46.34Z"/><path class="cls-2" d="M187.83,307.69v-56.9h36v10.56h-25v11.14h22.76v10.57H198.8v14.06h25v10.57Z"/><path class="cls-2" d="M276.34,288.42a22.17,22.17,0,0,1-6.17,14.63,18.81,18.81,0,0,1-14.23,5.86c-13.25,0-21.13-9.68-21.13-30.57,0-18.94,8.13-28.77,21.13-28.77a18.61,18.61,0,0,1,14.23,5.93,21.8,21.8,0,0,1,6.17,14.55l-10.24,1.71c-.73-7.72-4.06-11.63-10.16-11.63-7.15,0-10.16,4.88-10.16,18.21,0,7.56.81,12.85,2.36,15.69s4.14,4.31,7.8,4.31c6.1,0,9.43-3.9,10.16-11.62Z"/><path class="cls-2" d="M284.71,307.69v-56.9h11v21.7H315.2v-21.7h11v56.9h-11V283.06H295.69v24.63Z"/><path class="cls-2" d="M415,155.77a3.86,3.86,0,1,0-3.85-3.86A3.86,3.86,0,0,0,415,155.77Z"/><path class="cls-2" d="M415,179.92a4.1,4.1,0,1,0-4.09-4.09A4.1,4.1,0,0,0,415,179.92Z"/><circle class="cls-2" cx="414.96" cy="199.74" r="4.33"/><path class="cls-2" d="M415,228.23a4.58,4.58,0,1,0-4.57-4.58A4.58,4.58,0,0,0,415,228.23Z"/><path class="cls-2" d="M415,252.39a4.82,4.82,0,1,0-4.81-4.82A4.82,4.82,0,0,0,415,252.39Z"/><circle class="cls-2" cx="414.96" cy="271.48" r="5.06"/><circle class="cls-2" cx="414.96" cy="295.4" r="5.3"/><path class="cls-2" d="M415,324.85a5.54,5.54,0,1,0-5.53-5.54A5.54,5.54,0,0,0,415,324.85Z"/><path class="cls-2" d="M415,349a5.78,5.78,0,1,0-5.77-5.77A5.78,5.78,0,0,0,415,349Z"/><circle class="cls-2" cx="414.96" cy="367.14" r="6.02"/><circle class="cls-2" cx="414.96" cy="391.05" r="6.26"/><path class="cls-2" d="M415,408.46a6.51,6.51,0,1,0,6.51,6.5A6.51,6.51,0,0,0,415,408.46Z"/><path class="cls-2" d="M391.05,105.77a1.69,1.69,0,1,0-1.68-1.68A1.69,1.69,0,0,0,391.05,105.77Z"/><path class="cls-2" d="M391.05,129.93a1.93,1.93,0,1,0-1.93-1.93A1.94,1.94,0,0,0,391.05,129.93Z"/><path class="cls-2" d="M391.05,154.08a2.17,2.17,0,1,0-2.17-2.17A2.16,2.16,0,0,0,391.05,154.08Z"/><path class="cls-2" d="M391.05,178.24a2.41,2.41,0,1,0-2.41-2.41A2.42,2.42,0,0,0,391.05,178.24Z"/><circle class="cls-2" cx="391.05" cy="199.74" r="2.65"/><circle class="cls-2" cx="391.05" cy="223.65" r="2.89"/><path class="cls-2" d="M391.05,250.7a3.13,3.13,0,1,0-3.13-3.13A3.13,3.13,0,0,0,391.05,250.7Z"/><circle class="cls-2" cx="391.05" cy="271.48" r="3.37"/><path class="cls-2" d="M391.05,299a3.62,3.62,0,1,0-3.61-3.61A3.61,3.61,0,0,0,391.05,299Z"/><path class="cls-2" d="M391.05,323.16a3.85,3.85,0,1,0-3.86-3.85A3.85,3.85,0,0,0,391.05,323.16Z"/><circle class="cls-2" cx="414.96" cy="104.09" r="8.32"/><circle class="cls-2" cx="414.96" cy="128" r="8.67"/><circle class="cls-2" cx="391.05" cy="343.23" r="4.16"/><circle class="cls-2" cx="391.05" cy="367.14" r="4.51"/><circle class="cls-2" cx="391.05" cy="391.05" r="4.85"/><circle class="cls-2" cx="391.05" cy="414.96" r="5.2"/><circle class="cls-2" cx="367.14" cy="104.09" r="2.08"/><circle class="cls-2" cx="367.14" cy="128" r="2.43"/><path class="cls-2" d="M367.14,154.69a2.78,2.78,0,1,0-2.78-2.78A2.78,2.78,0,0,0,367.14,154.69Z"/><path class="cls-2" d="M367.14,179a3.12,3.12,0,1,0-3.12-3.12A3.12,3.12,0,0,0,367.14,179Z"/><path class="cls-2" d="M367.14,203.21a3.47,3.47,0,1,0-3.47-3.47A3.47,3.47,0,0,0,367.14,203.21Z"/><circle class="cls-2" cx="367.14" cy="223.65" r="3.81"/><path class="cls-2" d="M367.14,251.73a4.17,4.17,0,1,0-4.16-4.16A4.16,4.16,0,0,0,367.14,251.73Z"/><circle class="cls-2" cx="367.14" cy="271.48" r="4.51"/><circle class="cls-2" cx="367.14" cy="295.4" r="4.85"/><path class="cls-2" d="M367.14,324.51a5.2,5.2,0,1,0-5.2-5.2A5.2,5.2,0,0,0,367.14,324.51Z"/><path class="cls-2" d="M367.14,348.78a5.55,5.55,0,1,0-5.55-5.55A5.56,5.56,0,0,0,367.14,348.78Z"/><circle class="cls-2" cx="367.14" cy="367.14" r="5.89"/><circle class="cls-2" cx="367.14" cy="391.05" r="6.24"/><circle class="cls-2" cx="367.14" cy="414.96" r="6.59"/><path class="cls-2" d="M391.05,57.46a1.2,1.2,0,1,0-1.21-1.2A1.21,1.21,0,0,0,391.05,57.46Z"/><path class="cls-2" d="M391.05,78.73a1.45,1.45,0,1,0,1.44,1.44A1.43,1.43,0,0,0,391.05,78.73Z"/><path class="cls-2" d="M367.14,16.37a7.94,7.94,0,1,0-7.95-7.94A7.94,7.94,0,0,0,367.14,16.37Z"/><path class="cls-2" d="M367.14,40.53A8.19,8.19,0,1,0,359,32.34,8.18,8.18,0,0,0,367.14,40.53Z"/><path class="cls-2" d="M367.14,64.68a8.43,8.43,0,1,0-8.43-8.42A8.42,8.42,0,0,0,367.14,64.68Z"/><circle class="cls-2" cx="367.14" cy="80.17" r="8.67"/><path class="cls-2" d="M343.22,14.69A6.26,6.26,0,1,0,337,8.43,6.26,6.26,0,0,0,343.22,14.69Z"/><path class="cls-2" d="M343.22,38.84a6.5,6.5,0,1,0-6.5-6.5A6.5,6.5,0,0,0,343.22,38.84Z"/><path class="cls-2" d="M343.22,49.52A6.74,6.74,0,1,0,350,56.26,6.74,6.74,0,0,0,343.22,49.52Z"/><path class="cls-2" d="M319.31,13a4.57,4.57,0,1,0-4.58-4.57A4.58,4.58,0,0,0,319.31,13Z"/><path class="cls-2" d="M319.31,37.16a4.82,4.82,0,1,0-4.81-4.82A4.82,4.82,0,0,0,319.31,37.16Z"/><path class="cls-2" d="M319.31,51.2a5.06,5.06,0,1,0,5.05,5.06A5.05,5.05,0,0,0,319.31,51.2Z"/><path class="cls-2" d="M247.57,16.86a8.43,8.43,0,1,0-8.43-8.43A8.43,8.43,0,0,0,247.57,16.86Z"/><path class="cls-2" d="M247.57,23.68a8.67,8.67,0,1,0,8.66,8.66A8.67,8.67,0,0,0,247.57,23.68Z"/><path class="cls-2" d="M223.65,15.17a6.74,6.74,0,1,0-6.74-6.74A6.73,6.73,0,0,0,223.65,15.17Z"/><path class="cls-2" d="M223.65,39.33a7,7,0,1,0-7-7A7,7,0,0,0,223.65,39.33Z"/><path class="cls-2" d="M223.65,49a7.22,7.22,0,1,0,7.23,7.22A7.22,7.22,0,0,0,223.65,49Z"/><path class="cls-2" d="M199.74,13.49a5.06,5.06,0,1,0-5.05-5.06A5.07,5.07,0,0,0,199.74,13.49Z"/><circle class="cls-2" cx="199.74" cy="32.34" r="5.3"/><path class="cls-2" d="M199.74,50.72a5.54,5.54,0,1,0,5.54,5.54A5.54,5.54,0,0,0,199.74,50.72Z"/><circle class="cls-2" cx="414.96" cy="8.43" r="6.94"/><circle class="cls-2" cx="414.96" cy="32.34" r="7.28"/><circle class="cls-2" cx="414.96" cy="56.26" r="7.63"/><path class="cls-2" d="M415,72.19a8,8,0,1,0,8,8A8,8,0,0,0,415,72.19Z"/><circle class="cls-2" cx="391.05" cy="8.43" r="8.32"/><circle class="cls-2" cx="391.05" cy="32.34" r="8.67"/><circle class="cls-2" cx="295.4" cy="8.43" r="4.85"/><path class="cls-2" d="M295.4,37.55a5.21,5.21,0,1,0-5.2-5.21A5.2,5.2,0,0,0,295.4,37.55Z"/><path class="cls-2" d="M295.4,50.71a5.55,5.55,0,1,0,5.54,5.55A5.54,5.54,0,0,0,295.4,50.71Z"/><path class="cls-2" d="M271.48,14.67a6.24,6.24,0,1,0-6.24-6.24A6.24,6.24,0,0,0,271.48,14.67Z"/><path class="cls-2" d="M271.48,38.93a6.59,6.59,0,1,0-6.58-6.59A6.58,6.58,0,0,0,271.48,38.93Z"/><path class="cls-2" d="M271.48,49.32a6.94,6.94,0,1,0,6.94,6.94A6.94,6.94,0,0,0,271.48,49.32Z"/><circle class="cls-2" cx="247.57" cy="56.26" r="8.32"/><circle class="cls-2" cx="319.31" cy="391.05" r="8.43"/><path class="cls-2" d="M319.31,406.29A8.67,8.67,0,1,0,328,415,8.67,8.67,0,0,0,319.31,406.29Z"/><path class="cls-2" d="M295.4,373.64a6.51,6.51,0,1,0-6.51-6.5A6.49,6.49,0,0,0,295.4,373.64Z"/><path class="cls-2" d="M295.4,397.79a6.74,6.74,0,1,0-6.74-6.74A6.74,6.74,0,0,0,295.4,397.79Z"/><path class="cls-2" d="M295.4,408a7,7,0,1,0,7,7A7,7,0,0,0,295.4,408Z"/><path class="cls-2" d="M271.48,372a4.82,4.82,0,1,0-4.82-4.81A4.82,4.82,0,0,0,271.48,372Z"/><path class="cls-2" d="M271.48,396.11a5.06,5.06,0,1,0-5.06-5.06A5.06,5.06,0,0,0,271.48,396.11Z"/><path class="cls-2" d="M271.48,409.66a5.3,5.3,0,1,0,5.3,5.3A5.3,5.3,0,0,0,271.48,409.66Z"/><path class="cls-2" d="M199.74,358.47a8.67,8.67,0,1,0,8.67,8.67A8.67,8.67,0,0,0,199.74,358.47Z"/><circle class="cls-2" cx="343.22" cy="367.14" r="7.28"/><circle class="cls-2" cx="343.22" cy="391.05" r="7.63"/><circle class="cls-2" cx="343.22" cy="414.96" r="7.98"/><path class="cls-2" d="M319.31,358.47a8.67,8.67,0,1,0,8.67,8.67A8.67,8.67,0,0,0,319.31,358.47Z"/><path class="cls-2" d="M247.57,371a3.82,3.82,0,1,0-3.82-3.81A3.81,3.81,0,0,0,247.57,371Z"/><path class="cls-2" d="M247.57,395.21a4.16,4.16,0,1,0-4.17-4.16A4.16,4.16,0,0,0,247.57,395.21Z"/><path class="cls-2" d="M247.57,410.45a4.51,4.51,0,1,0,4.5,4.51A4.51,4.51,0,0,0,247.57,410.45Z"/><path class="cls-2" d="M223.65,372.34a5.2,5.2,0,1,0-5.2-5.2A5.2,5.2,0,0,0,223.65,372.34Z"/><path class="cls-2" d="M223.65,396.6a5.55,5.55,0,1,0-5.54-5.55A5.54,5.54,0,0,0,223.65,396.6Z"/><circle class="cls-2" cx="223.65" cy="414.96" r="5.89"/><path class="cls-2" d="M199.74,398a6.94,6.94,0,1,0-6.93-6.94A6.94,6.94,0,0,0,199.74,398Z"/><circle class="cls-2" cx="199.74" cy="414.96" r="7.28"/></g></g></svg>