<svg xmlns="http://www.w3.org/2000/svg" width="19" height="16" viewBox="0 0 19 16"><g><g><path fill="#fff" d="M16.76 4.295c.012.167.012.334.012.502 0 5.106-3.91 10.99-11.055 10.99-2.202 0-4.247-.634-5.967-1.734.313.035.613.047.938.047a7.81 7.81 0 0 0 4.824-1.65A3.89 3.89 0 0 1 1.88 9.772c.24.035.481.06.734.06.349 0 .698-.049 1.023-.132A3.869 3.869 0 0 1 .52 5.909v-.048a3.93 3.93 0 0 0 1.756.49 3.854 3.854 0 0 1-1.203-5.165 11.066 11.066 0 0 0 8.012 4.041 4.335 4.335 0 0 1-.096-.885C8.989 2.214 10.72.48 12.874.48c1.119 0 2.13.466 2.839 1.22a7.678 7.678 0 0 0 2.466-.933 3.856 3.856 0 0 1-1.708 2.129 7.826 7.826 0 0 0 2.237-.598 8.326 8.326 0 0 1-1.948 1.997z"/></g></g></svg>