<?xml version="1.0" standalone="no"?>
<!DOCTYPE svg PUBLIC "-//W3C//DTD SVG 20010904//EN"
 "http://www.w3.org/TR/2001/REC-SVG-20010904/DTD/svg10.dtd">
<svg version="1.0" xmlns="http://www.w3.org/2000/svg"
 width="700.000000pt" height="700.000000pt" viewBox="0 0 700.000000 700.000000"
 preserveAspectRatio="xMidYMid meet">
<metadata>
Created by potrace 1.11, written by Peter Selinger 2001-2013
</metadata>
<g transform="translate(0.000000,700.000000) scale(0.100000,-0.100000)"
fill="#000000" stroke="none">
<path d="M2 3503 l3 -3498 942 0 943 0 0 320 0 321 -612 -1 c-337 0 -619 1
-625 3 -10 3 -13 584 -13 2858 l0 2854 608 0 607 0 -2 307 c-1 170 -2 314 -2
321 -1 9 -193 12 -926 12 l-925 0 2 -3497z"/>
<path d="M4025 6984 c-42 -24 -64 -51 -71 -90 -10 -54 3 -97 40 -133 30 -29
42 -33 88 -34 64 -2 101 20 127 72 31 62 13 140 -42 176 -37 24 -107 28 -142
9z"/>
<path d="M6389 6979 c-91 -54 -90 -182 2 -238 36 -22 96 -20 140 6 57 34 77
127 39 188 -36 58 -122 79 -181 44z"/>
<path d="M5993 6971 c-18 -11 -39 -34 -48 -50 -59 -116 71 -238 182 -170 72
44 84 143 25 202 -40 40 -111 48 -159 18z"/>
<path d="M6823 6972 c-13 -2 -36 -17 -52 -33 -98 -97 38 -249 149 -167 26 19
45 61 43 96 -2 31 -5 39 -26 65 -22 29 -73 46 -114 39z"/>
<path d="M3650 6963 c-31 -12 -59 -47 -65 -83 -17 -101 101 -170 175 -102 44
39 53 81 29 130 -27 53 -83 75 -139 55z"/>
<path d="M4460 6959 c-121 -26 -96 -199 28 -199 79 0 125 104 73 164 -27 31
-63 43 -101 35z"/>
<path d="M5645 6961 c-84 -24 -107 -116 -45 -173 95 -87 224 42 143 141 -21
24 -69 40 -98 32z"/>
<path d="M4809 6931 c-48 -49 -38 -125 21 -156 103 -53 197 80 111 157 -43 39
-92 38 -132 -1z"/>
<path d="M3257 6933 c-28 -14 -49 -64 -40 -91 22 -63 94 -82 138 -37 66 65
-16 172 -98 128z"/>
<path d="M5240 6927 c-35 -18 -50 -53 -38 -88 13 -38 33 -52 70 -51 69 2 97
83 44 129 -31 26 -41 28 -76 10z"/>
<path d="M4027 6596 c-15 -8 -34 -22 -43 -30 -21 -22 -43 -79 -39 -102 2 -10
4 -27 4 -36 1 -10 15 -33 32 -53 83 -95 233 -47 246 78 5 49 -18 101 -57 129
-35 25 -108 33 -143 14z"/>
<path d="M6415 6603 c-68 -17 -115 -100 -96 -169 35 -129 202 -150 262 -33 14
29 19 52 15 77 -3 21 -5 40 -6 44 0 4 -12 20 -27 37 -41 44 -89 58 -148 44z"/>
<path d="M5993 6581 c-60 -38 -81 -116 -49 -178 45 -88 169 -94 230 -11 37 51
21 144 -31 182 -39 28 -111 32 -150 7z"/>
<path d="M6791 6569 c-106 -65 -60 -221 66 -221 117 0 154 168 50 224 -33 17
-85 16 -116 -3z"/>
<path d="M3620 6553 c-60 -54 -53 -142 13 -184 88 -55 204 39 167 136 -29 76
-121 100 -180 48z"/>
<path d="M4443 6565 c-58 -25 -83 -82 -59 -139 19 -45 52 -66 102 -66 35 0 47
5 73 35 77 88 -10 215 -116 170z"/>
<path d="M3265 6559 c-65 -18 -86 -110 -36 -160 79 -79 207 12 156 111 -24 46
-66 64 -120 49z"/>
<path d="M5604 6552 c-55 -46 -59 -109 -10 -158 70 -70 175 -26 176 74 0 62
-41 102 -102 102 -26 -1 -51 -8 -64 -18z"/>
<path d="M4822 6530 c-44 -41 -39 -102 13 -136 60 -39 143 21 124 90 -18 63
-92 88 -137 46z"/>
<path d="M5245 6540 c-79 -31 -60 -150 24 -152 26 -1 40 6 58 26 38 44 28 97
-24 124 -25 14 -30 14 -58 2z"/>
<path d="M4021 6189 c-119 -72 -73 -252 64 -252 104 0 169 108 121 201 -32 62
-125 88 -185 51z"/>
<path d="M5993 6190 c-46 -27 -66 -64 -67 -119 -2 -144 192 -190 259 -61 61
118 -79 249 -192 180z"/>
<path d="M6799 6184 c-68 -28 -94 -121 -50 -182 29 -41 52 -53 101 -54 69 -1
123 53 124 122 0 90 -89 149 -175 114z"/>
<path d="M3641 6177 c-51 -26 -79 -94 -60 -144 9 -25 52 -71 67 -74 116 -22
198 73 147 171 -27 53 -100 75 -154 47z"/>
<path d="M4431 6172 c-39 -18 -61 -58 -61 -108 0 -28 8 -44 34 -70 98 -98 246
26 170 143 -28 44 -93 60 -143 35z"/>
<path d="M5598 6157 c-73 -63 -40 -178 55 -194 112 -18 169 135 75 201 -34 24
-98 20 -130 -7z"/>
<path d="M3262 6156 c-12 -7 -29 -21 -37 -33 -61 -87 51 -188 132 -119 35 30
39 95 7 126 -28 28 -75 40 -102 26z"/>
<path d="M4816 6138 c-44 -39 -36 -117 14 -143 63 -33 126 -2 137 67 5 32 1
41 -25 68 -38 38 -89 41 -126 8z"/>
<path d="M5253 6152 c-30 -5 -63 -48 -63 -84 0 -67 92 -104 137 -55 58 62 10
152 -74 139z"/>
<path d="M6440 6070 c0 -22 1 -23 24 -14 18 7 10 34 -10 34 -8 0 -14 -9 -14
-20z"/>
<path d="M6005 5806 c-53 -24 -78 -60 -82 -118 -5 -65 19 -108 74 -136 66 -34
139 -14 184 50 37 52 22 144 -31 186 -36 28 -105 37 -145 18z"/>
<path d="M6789 5791 c-91 -49 -88 -183 5 -233 79 -43 186 23 186 115 0 51 -14
81 -50 107 -41 29 -99 34 -141 11z"/>
<path d="M6435 5690 c-7 -12 12 -40 27 -40 16 0 21 32 7 41 -18 12 -26 11 -34
-1z"/>
<path d="M6803 5409 c-18 -5 -45 -25 -59 -45 -85 -111 35 -262 163 -204 157
70 62 300 -104 249z"/>
<path d="M6008 5363 c-76 -48 -52 -158 39 -178 39 -8 86 16 102 52 42 92 -55
179 -141 126z"/>
<path d="M6437 5303 c-12 -11 -8 -41 6 -46 6 -2 20 0 30 5 14 7 15 13 7 28
-11 20 -31 26 -43 13z"/>
<path d="M3063 5142 l-53 -3 0 -85 0 -84 33 -1 c17 0 79 -1 137 -2 l105 -2 1
-372 c1 -205 2 -377 3 -382 0 -5 41 -9 89 -9 l88 0 -1 362 c0 198 1 371 3 382
4 21 9 22 134 22 71 0 131 2 134 4 2 3 5 42 7 86 l2 82 -80 0 c-44 1 -186 2
-315 3 -129 1 -259 1 -287 -1z"/>
<path d="M3898 5142 l-28 -3 0 -468 0 -468 90 0 90 -1 0 204 0 204 160 0 160
0 2 -202 3 -203 85 -2 c47 -1 87 2 90 7 3 4 5 214 5 467 l-1 458 -59 5 c-33 3
-75 3 -92 1 l-33 -3 0 -177 0 -177 -157 1 -158 0 -5 179 -5 178 -60 2 c-33 0
-72 0 -87 -2z"/>
<path d="M4820 5142 l-55 -3 1 -462 c1 -254 2 -465 3 -468 0 -4 134 -6 296 -6
l296 0 -3 86 -3 86 -185 2 c-102 1 -194 2 -205 2 -19 1 -20 7 -18 108 0 60 2
111 2 116 1 4 84 7 186 7 169 0 185 2 186 18 3 41 0 143 -5 150 -2 4 -86 7
-185 7 l-181 -1 -1 26 c-1 14 -1 54 -2 90 l0 65 189 2 c104 1 197 2 207 2 15
1 17 12 17 89 l0 87 -243 0 c-133 0 -267 -1 -297 -3z"/>
<path d="M6795 5016 c-50 -22 -77 -60 -83 -114 -8 -89 50 -155 137 -155 56 0
82 13 116 57 86 113 -40 270 -170 212z"/>
<path d="M6002 4964 c-38 -30 -48 -71 -28 -117 27 -65 106 -79 157 -28 85 86
-34 219 -129 145z"/>
<path d="M6432 4903 c-13 -26 -4 -43 23 -43 30 0 39 14 25 40 -13 25 -36 26
-48 3z"/>
<path d="M6812 4537 c-41 -43 -18 -107 39 -107 32 0 46 10 57 40 11 29 -10 80
-32 80 -8 0 -21 2 -28 5 -8 3 -24 -5 -36 -18z"/>
<path d="M6038 4528 c-25 -21 -28 -44 -8 -66 25 -26 58 -18 71 17 9 21 7 29
-11 43 -26 21 -31 22 -52 6z"/>
<path d="M6432 4518 c-16 -16 -15 -33 4 -52 19 -20 54 -5 54 22 0 20 -18 42
-35 42 -6 0 -16 -5 -23 -12z"/>
<path d="M6822 4157 c-19 -9 -32 -30 -38 -64 -1 -7 7 -24 18 -38 50 -64 149
12 104 80 -17 26 -53 36 -84 22z"/>
<path d="M6025 4130 c-21 -23 -16 -59 10 -76 42 -28 94 31 66 75 -14 21 -57
22 -76 1z"/>
<path d="M6430 4126 c-20 -25 -8 -61 22 -64 39 -5 56 30 28 58 -24 24 -33 25
-50 6z"/>
<path d="M3262 4001 c-97 -36 -156 -104 -198 -226 -23 -68 -27 -99 -29 -211
-5 -205 31 -336 114 -427 62 -67 126 -91 236 -91 109 0 176 27 243 95 76 78
99 150 100 317 l1 97 -191 -2 c-105 -2 -194 -7 -197 -12 -3 -5 -4 -42 -1 -82
l5 -74 100 0 100 0 -3 -30 c-9 -84 -71 -136 -161 -137 -126 0 -172 98 -166
352 3 125 17 186 53 228 34 38 64 50 125 47 81 -5 128 -56 152 -168 3 -15 9
-26 13 -23 8 4 111 19 143 20 41 1 -17 169 -84 243 -59 65 -128 96 -222 100
-61 3 -93 -1 -133 -16z"/>
<path d="M3915 4002 l-60 -3 5 -352 c6 -367 8 -385 53 -452 61 -92 157 -145
272 -151 175 -9 311 86 356 246 9 31 13 145 13 378 1 290 -1 332 -14 333 -66
2 -153 -1 -158 -6 -4 -4 -8 -152 -8 -330 -1 -309 -2 -325 -23 -368 -26 -53
-75 -80 -149 -80 -80 0 -144 49 -156 119 -2 16 -5 171 -5 345 l-1 317 -32 3
c-18 2 -60 3 -93 1z"/>
<path d="M1371 3530 l1 -470 89 0 c64 0 89 4 90 13 0 6 2 98 2 202 l2 190 160
0 160 0 0 -200 1 -200 91 -2 91 -1 0 469 0 469 -89 0 c-49 0 -89 -3 -90 -7 -1
-5 -2 -84 -3 -178 l-1 -170 -160 0 -160 0 -1 175 0 175 -92 3 -92 3 1 -471z"/>
<path d="M2302 3535 c-89 -256 -162 -467 -162 -470 0 -3 42 -4 93 -3 l92 3 23
70 c13 38 27 74 32 80 10 12 297 15 316 3 5 -4 21 -41 34 -82 l24 -76 97 0 97
0 -35 103 c-19 56 -71 206 -115 332 -44 127 -101 292 -126 368 l-47 137 -81 0
-81 0 -161 -465z m289 25 c23 -74 44 -141 47 -147 3 -10 -20 -13 -98 -13 -89
0 -101 2 -96 16 3 9 21 66 40 127 40 130 57 176 62 162 1 -5 22 -71 45 -145z"/>
<path d="M4765 3530 l0 -470 298 1 297 0 -1 87 -1 88 -196 -1 c-109 -1 -201 0
-207 2 -8 3 -12 178 -6 225 1 4 82 7 181 7 100 -1 184 1 187 5 9 8 10 126 2
151 -6 19 -15 20 -188 19 -159 -1 -181 1 -182 15 -1 17 -1 139 0 157 1 7 63
10 194 9 105 0 198 1 205 3 8 3 12 30 12 88 l0 84 -298 0 -297 0 0 -470z"/>
<path d="M6395 3778 c-35 -32 -47 -77 -28 -115 37 -77 146 -76 179 2 14 33 12
49 -8 91 -22 46 -101 58 -143 22z"/>
<path d="M6794 3782 c-51 -41 -57 -97 -16 -142 65 -71 172 -28 172 70 0 47
-47 90 -97 90 -21 0 -48 -8 -59 -18z"/>
<path d="M6034 3752 c-6 -4 -16 -17 -23 -30 -10 -19 -10 -28 3 -46 21 -33 51
-38 82 -14 20 16 24 26 19 47 -10 41 -51 63 -81 43z"/>
<path d="M6023 3399 c-29 -11 -53 -44 -58 -79 -12 -94 94 -146 164 -81 79 74
-3 199 -106 160z"/>
<path d="M6412 3397 c-62 -35 -73 -108 -23 -158 40 -39 89 -40 131 -1 55 50
42 130 -25 158 -41 17 -53 17 -83 1z"/>
<path d="M6824 3375 c-56 -23 -62 -90 -12 -128 22 -17 31 -18 60 -8 33 11 58
43 58 75 0 20 -37 63 -58 68 -11 3 -32 0 -48 -7z"/>
<path d="M6801 2973 c-11 -10 -24 -32 -27 -50 -5 -27 -1 -37 24 -63 21 -21 38
-29 54 -26 13 3 26 5 30 5 4 1 16 11 28 23 62 67 -38 169 -109 111z"/>
<path d="M6015 2960 c-41 -45 -14 -113 45 -113 61 0 92 71 50 113 -26 26 -72
26 -95 0z"/>
<path d="M6425 2947 c-23 -19 -25 -26 -16 -49 12 -31 42 -43 69 -29 41 22 39
70 -3 89 -21 10 -29 8 -50 -11z"/>
<path d="M4128 2866 c-158 -42 -249 -206 -251 -451 -1 -211 53 -377 147 -448
68 -52 96 -61 196 -61 81 -1 102 3 145 24 97 47 177 157 191 263 l7 46 -34 6
c-19 3 -55 9 -81 14 -53 9 -58 7 -58 -24 0 -37 -48 -119 -80 -139 -38 -22
-115 -25 -154 -5 -73 35 -97 120 -93 329 2 132 4 149 27 194 34 68 65 89 132
89 74 0 112 -24 143 -90 14 -28 25 -60 25 -71 0 -27 8 -31 43 -22 28 8 97 19
121 20 15 0 -3 93 -30 147 -33 68 -97 134 -159 163 -59 28 -164 35 -237 16z"/>
<path d="M2179 2828 c-2 -78 0 -128 4 -135 3 -5 64 -8 136 -8 125 1 131 0 132
-19 0 -12 1 -183 2 -381 l2 -360 84 -3 c46 -2 87 1 90 7 3 5 6 176 6 380 -1
251 3 371 10 372 5 1 66 2 135 3 l125 1 3 88 3 87 -366 0 -365 0 -1 -32z"/>
<path d="M3100 2390 l0 -470 297 2 297 3 1 83 c1 51 -3 82 -9 83 -6 1 -99 2
-206 3 l-195 1 -1 116 -2 116 167 0 c91 1 176 2 189 2 21 1 22 5 22 86 l0 85
-187 2 -188 3 0 90 0 90 200 0 c170 0 201 2 206 15 3 8 5 47 5 85 l-1 70 -298
3 -297 2 0 -470z"/>
<path d="M4700 2390 l0 -470 90 0 90 0 1 48 c0 26 1 117 2 202 l2 155 155 1
c85 1 157 -2 160 -7 3 -4 5 -96 4 -203 l0 -197 90 3 91 3 0 468 0 467 -90 0
-91 0 1 -167 c0 -93 -1 -174 -3 -181 -3 -10 -42 -12 -162 -11 l-158 1 0 166
c0 92 -1 173 -1 180 -1 9 -26 12 -91 12 l-90 0 0 -470z"/>
<path d="M6025 2611 c-99 -41 -69 -191 38 -191 98 0 133 133 47 183 -30 18
-54 20 -85 8z"/>
<path d="M6402 2600 c-55 -34 -61 -109 -12 -152 78 -71 197 9 156 105 -7 18
-20 38 -29 45 -26 22 -81 22 -115 2z"/>
<path d="M6814 2610 c-30 -12 -64 -58 -64 -87 0 -75 85 -128 151 -93 22 12 49
61 49 89 0 67 -74 117 -136 91z"/>
<path d="M6007 2209 c-28 -16 -49 -68 -43 -104 16 -86 135 -110 179 -36 41 70
-2 151 -80 151 -21 0 -46 -5 -56 -11z"/>
<path d="M6785 2196 c-49 -49 -43 -115 15 -153 43 -30 85 -23 124 19 24 27 27
37 23 72 -8 54 -44 86 -98 86 -29 0 -47 -7 -64 -24z"/>
<path d="M6424 2172 c-6 -4 -16 -16 -21 -27 -25 -49 37 -101 83 -70 13 8 25
20 25 25 1 6 2 16 3 23 1 6 -4 22 -12 35 -14 22 -55 30 -78 14z"/>
<path d="M6010 1794 c-67 -57 -24 -158 63 -148 35 3 56 20 68 53 30 76 -68
147 -131 95z"/>
<path d="M6789 1791 c-33 -34 -38 -74 -12 -111 23 -35 33 -40 74 -40 84 0 122
100 58 154 -41 35 -83 34 -120 -3z"/>
<path d="M6410 1770 c-27 -27 -25 -56 4 -85 26 -26 56 -25 89 3 37 33 5 102
-48 102 -14 0 -34 -9 -45 -20z"/>
<path d="M6430 1426 c-93 -31 -95 -160 -3 -185 101 -28 170 89 97 163 -31 31
-53 36 -94 22z"/>
<path d="M6024 1418 c-83 -44 -63 -165 29 -173 83 -8 131 92 72 150 -13 14
-30 25 -37 26 -7 0 -20 2 -29 4 -8 1 -24 -2 -35 -7z"/>
<path d="M6810 1417 c-81 -40 -61 -162 28 -174 77 -10 130 60 97 130 -24 52
-75 69 -125 44z"/>
<path d="M3223 1060 c-36 -22 -58 -59 -67 -110 -14 -94 110 -186 194 -144 82
40 108 108 74 193 -28 71 -133 103 -201 61z"/>
<path d="M5205 1064 c-93 -47 -99 -189 -10 -244 115 -71 259 46 209 169 -33
79 -123 114 -199 75z"/>
<path d="M5612 1043 c-38 -19 -64 -62 -64 -108 0 -44 15 -69 58 -95 77 -48
175 3 177 93 1 55 -22 94 -68 113 -44 18 -62 17 -103 -3z"/>
<path d="M4833 1035 c-56 -24 -81 -105 -47 -153 54 -78 171 -57 196 35 10 37
-15 89 -54 113 -39 23 -52 24 -95 5z"/>
<path d="M6025 1031 c-76 -32 -82 -143 -9 -182 28 -15 90 -6 115 17 47 42 30
136 -27 160 -37 16 -50 16 -79 5z"/>
<path d="M6415 1031 c-70 -29 -76 -132 -11 -174 55 -36 133 -4 149 62 7 27
-12 79 -34 98 -20 16 -80 24 -104 14z"/>
<path d="M6810 1029 c-29 -11 -60 -56 -60 -89 0 -33 30 -78 62 -91 34 -14 90
-5 112 19 42 47 27 130 -29 156 -37 18 -49 19 -85 5z"/>
<path d="M3665 1020 c-30 -11 -55 -43 -57 -72 -7 -82 94 -127 149 -66 22 24
23 92 2 113 -21 21 -70 34 -94 25z"/>
<path d="M4453 1009 c-43 -16 -60 -66 -38 -109 24 -47 81 -55 120 -15 62 61 0
154 -82 124z"/>
<path d="M4042 975 c-34 -43 -10 -95 43 -95 58 0 85 60 45 100 -27 27 -64 25
-88 -5z"/>
<path d="M5189 653 c-66 -56 -74 -144 -17 -202 105 -107 274 -2 227 141 -28
84 -142 118 -210 61z"/>
<path d="M5602 650 c-99 -62 -67 -212 48 -227 79 -11 140 44 140 126 0 92
-110 151 -188 101z"/>
<path d="M3248 646 c-36 -18 -67 -72 -62 -109 6 -48 23 -74 62 -93 72 -34 149
6 159 83 12 92 -77 160 -159 119z"/>
<path d="M4833 645 c-41 -17 -67 -58 -65 -102 4 -111 141 -150 201 -57 58 91
-37 201 -136 159z"/>
<path d="M6024 639 c-79 -29 -84 -148 -9 -184 44 -20 61 -19 101 6 35 21 54
65 46 106 -5 24 -47 72 -66 74 -6 1 -20 3 -31 4 -11 1 -30 -1 -41 -6z"/>
<path d="M6418 633 c-105 -42 -60 -204 52 -186 50 7 91 56 84 101 -1 6 -2 18
-3 26 -2 20 -49 63 -75 68 -13 3 -39 -1 -58 -9z"/>
<path d="M6825 642 c-91 -30 -104 -147 -20 -187 43 -20 63 -19 102 4 65 40 58
142 -12 176 -35 16 -39 16 -70 7z"/>
<path d="M3660 629 c-14 -5 -34 -23 -44 -40 -53 -90 62 -181 139 -109 70 66
-3 180 -95 149z"/>
<path d="M4425 600 c-48 -50 -22 -125 47 -137 41 -6 85 26 92 68 5 29 -26 88
-46 91 -55 6 -69 3 -93 -22z"/>
<path d="M4040 590 c-11 -11 -20 -33 -20 -48 0 -68 100 -89 128 -27 31 67 -56
127 -108 75z"/>
<path d="M5220 282 c-110 -49 -120 -196 -17 -257 52 -31 137 -16 178 31 54 63
37 171 -34 214 -32 20 -97 25 -127 12z"/>
<path d="M5615 270 c-48 -20 -88 -88 -79 -136 17 -96 119 -144 199 -94 85 53
79 182 -10 224 -36 17 -78 20 -110 6z"/>
<path d="M3248 259 c-15 -6 -36 -25 -48 -43 -55 -90 15 -199 116 -183 99 16
134 137 60 206 -28 26 -88 35 -128 20z"/>
<path d="M4830 252 c-58 -28 -81 -87 -56 -146 49 -118 216 -81 216 48 0 75
-92 131 -160 98z"/>
<path d="M6011 243 c-39 -20 -65 -71 -56 -113 14 -66 97 -108 152 -79 32 17
63 65 63 97 0 36 -27 80 -60 97 -37 19 -57 19 -99 -2z"/>
<path d="M6820 251 c-51 -20 -79 -62 -74 -109 9 -83 88 -123 163 -82 59 31 62
137 5 175 -28 18 -71 26 -94 16z"/>
<path d="M3655 241 c-94 -39 -74 -177 28 -188 56 -7 95 24 104 80 12 79 -59
137 -132 108z"/>
<path d="M6413 240 c-25 -10 -50 -46 -53 -75 -5 -43 1 -58 31 -86 41 -39 87
-39 129 -2 84 76 -1 206 -107 163z"/>
<path d="M4449 228 c-41 -14 -65 -73 -47 -114 5 -11 23 -29 39 -38 52 -31 113
-2 125 59 12 67 -49 117 -117 93z"/>
<path d="M4064 220 c-26 -10 -54 -47 -54 -72 0 -23 40 -68 65 -72 54 -9 98 48
79 102 -11 31 -60 53 -90 42z"/>
</g>
</svg>
