<?xml version="1.0" standalone="no"?>
<!DOCTYPE svg PUBLIC "-//W3C//DTD SVG 20010904//EN"
 "http://www.w3.org/TR/2001/REC-SVG-20010904/DTD/svg10.dtd">
<svg version="1.0" xmlns="http://www.w3.org/2000/svg"
 width="700.000000pt" height="700.000000pt" viewBox="0 0 700.000000 700.000000"
 preserveAspectRatio="xMidYMid meet">
<metadata>
Created by potrace 1.11, written by Peter Selinger 2001-2013
</metadata>
<g transform="translate(0.000000,700.000000) scale(0.100000,-0.100000)"
fill="#000000" stroke="none">
<path d="M0 3500 l0 -3500 3500 0 3500 0 0 3500 0 3500 -3500 0 -3500 0 0
-3500z m3200 2230 l0 -370 -765 0 -765 0 0 -1860 0 -1860 765 0 765 0 -2 -382
-3 -383 -1132 -3 -1133 -2 0 2615 0 2615 1135 0 1135 0 0 -370z m1491 356
c186 -43 313 -231 280 -412 -24 -128 -96 -223 -211 -278 -58 -28 -75 -31 -155
-31 -77 0 -98 4 -147 27 -79 37 -142 98 -181 177 -29 60 -32 74 -32 161 0 82
4 103 26 150 37 77 87 131 157 168 97 52 165 62 263 38z m1120 0 c220 -51 345
-293 258 -496 -47 -107 -118 -172 -229 -210 -172 -59 -369 28 -448 198 -23 49
-27 70 -27 152 1 84 4 102 29 154 62 127 191 210 331 215 17 0 55 -5 86 -13z
m55 -1137 c43 -16 75 -39 120 -83 79 -79 107 -147 108 -261 1 -70 -3 -89 -31
-147 -39 -82 -100 -145 -179 -184 -53 -26 -69 -29 -154 -29 -82 0 -103 4 -152
27 -210 98 -281 353 -152 545 97 142 272 195 440 132z m-1601 -669 l0 -175
-287 -3 -288 -2 0 -790 0 -790 -190 0 -190 0 0 790 0 790 -287 2 -288 3 -3
165 c-1 90 0 170 2 177 4 11 151 13 768 11 l763 -3 0 -175z m1605 -453 c77
-28 169 -121 200 -202 62 -162 7 -345 -134 -442 -109 -75 -260 -84 -374 -23
-75 40 -135 102 -170 178 -23 49 -27 70 -27 147 0 80 3 97 31 155 88 182 281
258 474 187z m15 -1127 c63 -30 144 -111 174 -173 38 -79 48 -162 28 -243 -31
-124 -115 -219 -234 -264 -84 -32 -207 -25 -284 14 -75 39 -134 99 -172 176
-29 58 -32 74 -32 155 0 78 4 98 28 150 44 95 128 171 220 201 67 22 210 13
272 -16z m-1124 -1122 c110 -50 185 -148 209 -273 29 -151 -49 -308 -192 -386
-60 -33 -67 -34 -168 -34 -94 0 -111 3 -160 27 -71 35 -143 107 -178 178 -24
48 -27 67 -27 150 0 83 3 102 28 155 44 94 116 161 210 196 76 28 202 22 278
-13z m1094 11 c117 -44 202 -140 232 -263 39 -160 -38 -326 -189 -406 -55 -30
-74 -35 -153 -38 -118 -5 -182 18 -264 94 -85 78 -116 151 -116 269 0 76 4 99
26 146 46 97 123 169 220 203 65 22 177 20 244 -5z"/>
</g>
</svg>
