<svg xmlns="http://www.w3.org/2000/svg" viewBox="0 0 68.11 58.9"><defs><style>.cls-1{fill:none;stroke:#0f2247;stroke-miterlimit:10;stroke-width:2px;}.cls-2{fill:#1126a9;}</style></defs><title>tht-icon-coworking</title><g id="Layer_2" data-name="Layer 2"><g id="picto"><path class="cls-1" d="M27.49,27.1s-.6-5.61-.84-7.32a6.08,6.08,0,0,0-4-4.28c-1.7-.62-3.18-1.28-3.18-1.28l-4.16,7.51H13.27L9.12,14.22s-1.49.66-3.19,1.28a6.06,6.06,0,0,0-4,4.28c-.25,1.71-.85,7.32-.85,7.32Z"/><circle class="cls-1" cx="14.3" cy="6.73" r="5.73"/><path class="cls-1" d="M47.24,57.9s-.6-5.61-.84-7.32a6.06,6.06,0,0,0-4-4.28c-1.7-.62-3.19-1.28-3.19-1.28l-4.15,7.51H33L28.87,45s-1.48.66-3.18,1.28a6.06,6.06,0,0,0-4,4.28c-.24,1.71-.84,7.32-.84,7.32Z"/><circle class="cls-1" cx="34.06" cy="37.53" r="5.73"/><path class="cls-1" d="M18,11.13A25.06,25.06,0,0,1,29.26,5.84"/><path class="cls-1" d="M9.6,37.42A25.25,25.25,0,0,1,9,27.1"/><circle class="cls-2" cx="11.07" cy="41.43" r="2"/><path class="cls-1" d="M21.44,52.72a25.3,25.3,0,0,1-7.93-7.14"/><path class="cls-1" d="M40.62,27.1s.6-5.61.85-7.32a6.06,6.06,0,0,1,4-4.28c1.7-.62,3.19-1.28,3.19-1.28l4.15,7.51h2.06L59,14.22s1.48.66,3.18,1.28a6.08,6.08,0,0,1,4,4.28c.24,1.71.84,7.32.84,7.32Z"/><circle class="cls-1" cx="53.81" cy="6.73" r="5.73"/><path class="cls-1" d="M50.13,11.13A25.06,25.06,0,0,0,38.85,5.84"/><path class="cls-1" d="M58.52,37.42a25.42,25.42,0,0,0,.65-10.32"/><circle class="cls-2" cx="57.04" cy="41.43" r="2"/><path class="cls-1" d="M46.67,52.72a25.3,25.3,0,0,0,7.93-7.14"/><circle class="cls-2" cx="34.06" cy="5.38" r="2"/></g></g></svg>