<svg xmlns="http://www.w3.org/2000/svg" viewBox="0 0 66.69 66.69"><defs><style>.cls-1{fill:none;stroke:#0f2247;stroke-miterlimit:10;stroke-width:2px;}.cls-2{fill:#1126a9;}.cls-3{fill:#fff;}</style></defs><title>tht-icon-cocreate</title><g id="Layer_2" data-name="Layer 2"><g id="picto"><polygon class="cls-1" points="33.35 5 40.94 15.01 53.39 13.3 51.68 25.75 61.69 33.35 51.68 40.94 53.39 53.39 40.94 51.68 33.35 61.69 25.75 51.68 13.3 53.39 15.01 40.94 5 33.35 15.01 25.75 13.3 13.3 25.75 15.01 33.35 5"/><path class="cls-2" d="M33.35,8.5A3.5,3.5,0,1,1,36.85,5,3.5,3.5,0,0,1,33.35,8.5Z"/><path class="cls-3" d="M33.35,3a2,2,0,1,1-2,2,2,2,0,0,1,2-2m0-3a5,5,0,1,0,5,5,5,5,0,0,0-5-5Z"/><path class="cls-2" d="M53.39,16.8a3.5,3.5,0,1,1,3.5-3.5A3.5,3.5,0,0,1,53.39,16.8Z"/><path class="cls-3" d="M53.39,11.3a2,2,0,1,1-2,2,2,2,0,0,1,2-2m0-3a5,5,0,1,0,5,5,5,5,0,0,0-5-5Z"/><circle class="cls-2" cx="61.69" cy="33.35" r="3.5"/><path class="cls-3" d="M61.69,31.35a2,2,0,1,1-2,2,2,2,0,0,1,2-2m0-3a5,5,0,1,0,5,5,5,5,0,0,0-5-5Z"/><path class="cls-2" d="M53.39,56.89a3.5,3.5,0,1,1,3.5-3.5A3.5,3.5,0,0,1,53.39,56.89Z"/><path class="cls-3" d="M53.39,51.39a2,2,0,1,1-2,2,2,2,0,0,1,2-2m0-3a5,5,0,1,0,5,5,5,5,0,0,0-5-5Z"/><path class="cls-2" d="M33.35,65.19a3.5,3.5,0,1,1,3.5-3.5A3.5,3.5,0,0,1,33.35,65.19Z"/><path class="cls-3" d="M33.35,59.69a2,2,0,1,1-2,2,2,2,0,0,1,2-2m0-3a5,5,0,1,0,5,5,5,5,0,0,0-5-5Z"/><path class="cls-2" d="M13.3,56.89a3.5,3.5,0,1,1,3.5-3.5A3.5,3.5,0,0,1,13.3,56.89Z"/><path class="cls-3" d="M13.3,51.39a2,2,0,1,1-2,2,2,2,0,0,1,2-2m0-3a5,5,0,1,0,5,5,5,5,0,0,0-5-5Z"/><circle class="cls-2" cx="5" cy="33.35" r="3.5"/><path class="cls-3" d="M5,31.35a2,2,0,1,1-2,2,2,2,0,0,1,2-2m0-3a5,5,0,1,0,5,5,5,5,0,0,0-5-5Z"/><path class="cls-2" d="M13.3,16.8a3.5,3.5,0,1,1,3.5-3.5A3.5,3.5,0,0,1,13.3,16.8Z"/><path class="cls-3" d="M13.3,11.3a2,2,0,1,1-2,2,2,2,0,0,1,2-2m0-3a5,5,0,1,0,5,5,5,5,0,0,0-5-5Z"/><line class="cls-1" x1="33.35" y1="24.22" x2="33.35" y2="43.92"/><line class="cls-1" x1="23.26" y1="34.3" x2="42.97" y2="34.3"/></g></g></svg>