<svg xmlns="http://www.w3.org/2000/svg" viewBox="0 0 325.37 325.37"><defs><style>.cls-1{fill:#332d82;}.cls-2{fill:none;}</style></defs><title>tht-read-more-arrow</title><g id="Layer_2" data-name="Layer 2"><g id="Layer_1-2" data-name="Layer 1"><circle class="cls-1" cx="163.76" cy="9.85" r="4.33" transform="translate(41 118.68) rotate(-45)"/><path class="cls-1" d="M183.91,30a4.58,4.58,0,1,0-6.47,0A4.59,4.59,0,0,0,183.91,30Z"/><path class="cls-1" d="M201,47.08a4.82,4.82,0,1,0-6.81,0A4.83,4.83,0,0,0,201,47.08Z"/><circle class="cls-1" cx="214.49" cy="60.58" r="5.06" transform="translate(19.99 169.41) rotate(-45)"/><circle class="cls-1" cx="231.4" cy="77.49" r="5.3"/><path class="cls-1" d="M252.23,98.31a5.54,5.54,0,1,0-7.83,0A5.54,5.54,0,0,0,252.23,98.31Z"/><path class="cls-1" d="M269.31,115.39a5.78,5.78,0,1,0-8.17,0A5.78,5.78,0,0,0,269.31,115.39Z"/><circle class="cls-1" cx="282.13" cy="128.22" r="6.02" transform="translate(-8.03 237.05) rotate(-45)"/><circle class="cls-1" cx="299.04" cy="145.13" r="6.26" transform="translate(-15.03 253.96) rotate(-45)"/><path class="cls-1" d="M311.35,157.44a6.5,6.5,0,1,0,9.2,0A6.5,6.5,0,0,0,311.35,157.44Z"/><circle class="cls-1" cx="146.86" cy="26.76" r="2.65"/><circle class="cls-1" cx="163.76" cy="43.67" r="2.89" transform="translate(17.09 128.59) rotate(-45)"/><path class="cls-1" d="M182.89,62.79a3.13,3.13,0,1,0-4.43,0A3.13,3.13,0,0,0,182.89,62.79Z"/><circle class="cls-1" cx="197.59" cy="77.49" r="3.37" transform="translate(3.08 162.41) rotate(-45)"/><path class="cls-1" d="M217.05,97a3.61,3.61,0,1,0-5.11,0A3.62,3.62,0,0,0,217.05,97Z"/><path class="cls-1" d="M234.13,114a3.85,3.85,0,1,0-5.45,0A3.86,3.86,0,0,0,234.13,114Z"/><circle class="cls-1" cx="248.31" cy="128.22" r="4.16"/><circle class="cls-1" cx="265.22" cy="145.13" r="4.51" transform="translate(-24.94 230.05) rotate(-45)"/><circle class="cls-1" cx="282.13" cy="162.03" r="4.85"/><circle class="cls-1" cx="299.04" cy="178.94" r="5.2" transform="translate(-38.94 263.86) rotate(-45)"/><path class="cls-1" d="M132.4,46.12a3.47,3.47,0,1,0-4.9,0A3.48,3.48,0,0,0,132.4,46.12Z"/><circle class="cls-1" cx="146.86" cy="60.58" r="3.81" transform="translate(0.18 121.58) rotate(-45)"/><path class="cls-1" d="M166.71,80.43a4.16,4.16,0,1,0-5.89,0A4.18,4.18,0,0,0,166.71,80.43Z"/><circle class="cls-1" cx="180.68" cy="94.4" r="4.51" transform="translate(-13.83 155.41) rotate(-45)"/><circle class="cls-1" cx="197.59" cy="111.3" r="4.85"/><path class="cls-1" d="M218.17,131.89a5.2,5.2,0,1,0-7.35,0A5.2,5.2,0,0,0,218.17,131.89Z"/><path class="cls-1" d="M235.33,149.05a5.55,5.55,0,1,0-7.85,0A5.56,5.56,0,0,0,235.33,149.05Z"/><circle class="cls-1" cx="248.31" cy="162.03" r="5.89" transform="translate(-41.85 223.04) rotate(-45)"/><circle class="cls-1" cx="265.22" cy="178.94" r="6.24" transform="translate(-48.85 239.95) rotate(-45)"/><circle class="cls-1" cx="282.13" cy="195.85" r="6.59"/><circle class="cls-1" cx="231.4" cy="212.76" r="8.43"/><path class="cls-1" d="M242.18,223.54a8.67,8.67,0,1,0,12.26,0A8.68,8.68,0,0,0,242.18,223.54Z"/><path class="cls-1" d="M202.18,217.36a6.5,6.5,0,1,0-9.19,0A6.49,6.49,0,0,0,202.18,217.36Z"/><path class="cls-1" d="M219.26,234.44a6.74,6.74,0,1,0-9.53,0A6.74,6.74,0,0,0,219.26,234.44Z"/><path class="cls-1" d="M226.46,241.64a7,7,0,1,0,9.88,0A7,7,0,0,0,226.46,241.64Z"/><path class="cls-1" d="M184.08,233.08a4.82,4.82,0,1,0-6.81,0A4.82,4.82,0,0,0,184.08,233.08Z"/><path class="cls-1" d="M201.16,250.16a5.06,5.06,0,1,0-7.15,0A5.05,5.05,0,0,0,201.16,250.16Z"/><path class="cls-1" d="M210.75,259.74a5.3,5.3,0,1,0,7.49,0A5.31,5.31,0,0,0,210.75,259.74Z"/><path class="cls-1" d="M123.82,274.27a8.67,8.67,0,1,0,12.26,0A8.66,8.66,0,0,0,123.82,274.27Z"/><circle class="cls-1" cx="231.4" cy="178.95" r="7.28" transform="translate(-58.76 216.04) rotate(-45)"/><circle class="cls-1" cx="248.31" cy="195.86" r="7.63" transform="translate(-65.76 232.95) rotate(-45)"/><circle class="cls-1" cx="265.22" cy="212.76" r="7.98" transform="translate(-72.77 249.85) rotate(-45)"/><path class="cls-1" d="M208.36,189.73a8.67,8.67,0,1,0,12.26,0A8.68,8.68,0,0,0,208.36,189.73Z"/><path class="cls-1" d="M166.46,249.28a3.81,3.81,0,1,0-5.39,0A3.81,3.81,0,0,0,166.46,249.28Z"/><path class="cls-1" d="M183.61,266.44a4.16,4.16,0,1,0-5.88,0A4.16,4.16,0,0,0,183.61,266.44Z"/><path class="cls-1" d="M194.39,277.21a4.51,4.51,0,1,0,6.38,0A4.51,4.51,0,0,0,194.39,277.21Z"/><path class="cls-1" d="M150.53,267.17a5.2,5.2,0,1,0-7.35,0A5.2,5.2,0,0,0,150.53,267.17Z"/><path class="cls-1" d="M167.69,284.32a5.55,5.55,0,1,0-7.85,0A5.55,5.55,0,0,0,167.69,284.32Z"/><circle class="cls-1" cx="180.67" cy="297.31" r="5.89"/><path class="cls-1" d="M151.76,302.21a6.93,6.93,0,1,0-9.81,0A6.92,6.92,0,0,0,151.76,302.21Z"/><circle class="cls-1" cx="163.76" cy="314.22" r="7.28"/><rect class="cls-2" x="47.65" y="47.65" width="230.07" height="230.07" transform="translate(-67.39 162.69) rotate(-45)"/></g></g></svg>