<svg xmlns="http://www.w3.org/2000/svg" viewBox="0 0 45 62.06"><defs><style>.cls-1{fill:#0f2247;}.cls-2{fill:#1126a9;}</style></defs><title>tht-icon-business</title><g id="Layer_2" data-name="Layer 2"><g id="picto"><path class="cls-1" d="M38.5,62.06H6.5v-43h32Zm-30-2h28v-39H8.5Z"/><rect class="cls-1" x="10.5" y="25.76" width="24" height="2"/><rect class="cls-1" x="10.5" y="31.76" width="24" height="2"/><rect class="cls-1" x="10.5" y="37.76" width="24" height="2"/><rect class="cls-1" x="10.5" y="43.86" width="24" height="2"/><path class="cls-1" d="M26.5,62.06h-8v-12h8Zm-6-2h4v-8h-4Z"/><polygon class="cls-1" points="35.5 20.06 33.5 20.06 33.5 17.06 11.5 17.06 11.5 20.06 9.5 20.06 9.5 15.06 35.5 15.06 35.5 20.06"/><rect class="cls-1" y="60.06" width="45" height="2"/><circle class="cls-2" cx="24.5" cy="2" r="2"/><circle class="cls-2" cx="28.52" cy="5.98" r="2"/><circle class="cls-2" cx="24.5" cy="9.96" r="2"/><polygon class="cls-1" points="20 0 20 2 17 2 17 9.82 20 9.82 20 11.82 15 11.82 15 0 20 0"/></g></g></svg>