<svg xmlns="http://www.w3.org/2000/svg" viewBox="0 0 56.98 58.97"><defs><style>.cls-1{fill:none;stroke:#0f2247;stroke-miterlimit:10;stroke-width:2px;}.cls-2{fill:#1126a9;}</style></defs><title>tht-icon-community</title><g id="Layer_2" data-name="Layer 2"><g id="picto"><path class="cls-1" d="M7.33,11.94a27.46,27.46,0,0,1,16-9.45"/><circle class="cls-2" cx="4.69" cy="15.74" r="2"/><path class="cls-1" d="M2.72,39a27.37,27.37,0,0,1-.2-18.54"/><circle class="cls-2" cx="4.69" cy="43.23" r="2"/><path class="cls-1" d="M23.88,56.58A27.42,27.42,0,0,1,7.72,47.49"/><circle class="cls-2" cx="28.49" cy="56.97" r="2"/><path class="cls-1" d="M49.65,47a27.4,27.4,0,0,1-16,9.44"/><circle class="cls-2" cx="52.29" cy="43.23" r="2"/><path class="cls-1" d="M54.26,19.93a27.37,27.37,0,0,1,.21,18.54"/><circle class="cls-2" cx="52.29" cy="15.74" r="2"/><path class="cls-1" d="M33.1,2.39a27.39,27.39,0,0,1,16.16,9.09"/><path class="cls-1" d="M41.26,42s-.58-5.44-.81-7.09a5.89,5.89,0,0,0-3.85-4.15c-1.65-.6-3.09-1.24-3.09-1.24l-4,7.28h-2l-4-7.28s-1.44.64-3.09,1.24a5.88,5.88,0,0,0-3.84,4.15c-.24,1.65-.82,7.09-.82,7.09Z"/><circle class="cls-1" cx="28.49" cy="22.23" r="5.55"/><circle class="cls-2" cx="28.49" cy="2" r="2"/></g></g></svg>